<?xml version="1.0" encoding="UTF-8" standalone="no"?>
<!DOCTYPE svg PUBLIC "-//W3C//DTD SVG 1.1//EN" "http://www.w3.org/Graphics/SVG/1.1/DTD/svg11.dtd">
<svg xmlns="http://www.w3.org/2000/svg" version="1.1" viewBox="0 0 265 314">
<g stroke-width="2.00" fill="none" stroke-linecap="butt">
<path stroke="#7b5f08" vector-effect="non-scaling-stroke" d="
  M 228.71 220.25
  Q 227.97 219.66 227.43 220.43
  Q 225.90 222.61 224.71 225.00"
/>
<path stroke="#624406" vector-effect="non-scaling-stroke" d="
  M 224.71 225.00
  Q 218.47 236.45 206.47 237.55
  Q 199.38 238.20 195.03 235.20
  Q 189.36 231.30 190.71 222.50"
/>
<path stroke="#7b5f08" vector-effect="non-scaling-stroke" d="
  M 190.71 222.50
  L 191.25 218.79"
/>
<path stroke="#2a2a2b" vector-effect="non-scaling-stroke" d="
  M 191.25 218.79
  Q 194.33 211.08 202.75 210.21"
/>
<path stroke="#1e1e1f" vector-effect="non-scaling-stroke" d="
  M 202.75 210.21
  Q 203.50 210.15 204.06 209.76
  Q 204.44 209.50 203.96 209.30
  Q 203.25 209.00 202.96 208.25"
/>
<path stroke="#2a2a2b" vector-effect="non-scaling-stroke" d="
  M 202.96 208.25
  Q 208.09 195.72 209.09 182.26
  Q 209.28 179.67 208.56 176.82
  Q 207.88 174.15 207.25 171.46"
/>
<path stroke="#111112" vector-effect="non-scaling-stroke" d="
  M 207.25 171.46
  Q 207.28 169.08 205.54 167.50"
/>
<path stroke="#2a2a2b" vector-effect="non-scaling-stroke" d="
  M 205.54 167.50
  Q 203.71 164.85 202.06 162.10
  Q 200.24 159.08 198.14 157.06
  Q 194.78 153.81 192.25 151.75
  Q 190.10 150.00 186.92 148.75
  Q 186.37 148.53 185.92 148.61
  Q 184.78 148.80 185.43 149.74
  Q 185.71 150.13 186.33 150.45
  Q 196.55 155.60 202.02 165.28
  Q 204.82 170.24 205.84 173.69
  Q 207.05 177.75 207.00 183.00
  Q 206.87 197.40 201.66 208.23
  A 1.17 1.10 2.9 0 1 200.95 208.83
  Q 193.46 211.09 190.71 218.50"
/>
<path stroke="#7b5f08" vector-effect="non-scaling-stroke" d="
  M 190.71 218.50
  Q 189.22 218.34 188.25 217.21"
/>
<path stroke="#808080" vector-effect="non-scaling-stroke" d="
  M 188.25 217.21
  Q 193.22 191.81 186.06 167.69
  Q 183.15 157.88 176.43 149.27
  Q 176.39 149.22 174.54 147.25
  Q 172.53 145.11 172.00 141.75
  Q 169.76 127.54 161.71 114.50"
/>
<path stroke="#606060" vector-effect="non-scaling-stroke" d="
  M 161.71 114.50
  Q 159.04 109.40 157.69 103.81
  Q 157.39 102.60 155.50 100.96"
/>
<path stroke="#573c05" vector-effect="non-scaling-stroke" d="
  M 155.50 100.96
  L 155.46 99.75"
/>
<path stroke="#6b4d07" vector-effect="non-scaling-stroke" d="
  M 155.46 99.75
  Q 157.34 97.32 157.49 94.51
  Q 157.55 93.21 157.75 91.92
  Q 158.60 86.36 154.75 84.46"
/>
<path stroke="#776008" vector-effect="non-scaling-stroke" d="
  M 154.75 84.46
  Q 154.71 84.25 154.50 84.21"
/>
<path stroke="#573c05" vector-effect="non-scaling-stroke" d="
  M 154.50 84.21
  Q 154.13 83.70 154.25 83.04"
/>
<path stroke="#69696a" vector-effect="non-scaling-stroke" d="
  M 154.25 83.04
  Q 156.86 79.56 157.54 75.25"
/>
<path stroke="#545455" vector-effect="non-scaling-stroke" d="
  M 157.54 75.25
  Q 157.88 74.42 157.79 73.50"
/>
<path stroke="#2a2a2b" vector-effect="non-scaling-stroke" d="
  M 157.79 73.50
  Q 158.51 68.50 156.79 63.75"
/>
<path stroke="#3f3f40" vector-effect="non-scaling-stroke" d="
  M 156.79 63.75
  Q 155.36 58.51 151.50 54.79"
/>
<path stroke="#636364" vector-effect="non-scaling-stroke" d="
  M 151.50 54.79
  L 150.46 53.75"
/>
<path stroke="#606060" vector-effect="non-scaling-stroke" d="
  M 150.46 53.75
  Q 149.76 52.96 148.75 52.71"
/>
<path stroke="#545455" vector-effect="non-scaling-stroke" d="
  M 148.75 52.71
  Q 145.69 50.69 142.00 51.29"
/>
<path stroke="#3f3f40" vector-effect="non-scaling-stroke" d="
  M 142.00 51.29
  Q 133.03 52.75 130.29 61.25"
/>
<path stroke="#606060" vector-effect="non-scaling-stroke" d="
  M 130.29 61.25
  Q 128.18 68.30 132.04 74.50"
/>
<path stroke="#111112" vector-effect="non-scaling-stroke" d="
  M 132.04 74.50
  Q 131.86 75.14 131.25 75.29"
/>
<path stroke="#776008" vector-effect="non-scaling-stroke" d="
  M 131.25 75.29
  Q 123.15 72.38 115.21 75.50"
/>
<path stroke="#573c05" vector-effect="non-scaling-stroke" d="
  M 115.21 75.50
  L 114.00 75.46"
/>
<path stroke="#808080" vector-effect="non-scaling-stroke" d="
  M 114.00 75.46
  Q 116.14 72.96 116.50 71.00
  Q 117.34 66.39 115.00 61.21"
/>
<path stroke="#545455" vector-effect="non-scaling-stroke" d="
  M 115.00 61.21
  Q 113.81 56.99 110.50 54.78
  Q 107.16 52.56 103.67 53.55
  Q 99.83 54.63 98.25 59.25
  Q 94.84 69.24 97.96 79.00"
/>
<path stroke="#606060" vector-effect="non-scaling-stroke" d="
  M 97.96 79.00
  L 100.29 84.75"
/>
<path stroke="#573c05" vector-effect="non-scaling-stroke" d="
  M 100.29 84.75
  Q 100.79 85.99 99.94 86.69
  Q 94.93 90.76 97.00 96.79"
/>
<path stroke="#492f05" vector-effect="non-scaling-stroke" d="
  M 97.00 96.79
  L 100.04 101.75"
/>
<path stroke="#1e1e1f" vector-effect="non-scaling-stroke" d="
  M 100.04 101.75
  L 100.29 104.50"
/>
<path stroke="#606060" vector-effect="non-scaling-stroke" d="
  M 100.29 104.50
  L 99.71 106.50"
/>
<path stroke="#111112" vector-effect="non-scaling-stroke" d="
  M 99.71 106.50
  Q 99.27 106.64 98.99 106.93
  Q 98.76 107.17 98.69 107.66
  Q 98.40 109.81 98.73 111.95
  Q 98.79 112.35 99.16 112.81
  Q 99.90 113.75 99.79 115.00"
/>
<path stroke="#707071" vector-effect="non-scaling-stroke" d="
  M 99.79 115.00
  L 99.04 116.50"
/>
<path stroke="#808080" vector-effect="non-scaling-stroke" d="
  M 99.04 116.50
  L 88.46 134.75"
/>
<path stroke="#69696a" vector-effect="non-scaling-stroke" d="
  M 88.46 134.75
  Q 86.96 137.18 86.46 140.00"
/>
<path stroke="#545455" vector-effect="non-scaling-stroke" d="
  M 86.46 140.00
  Q 85.19 144.04 84.75 149.25
  Q 84.53 151.81 83.04 154.50"
/>
<path stroke="#69696a" vector-effect="non-scaling-stroke" d="
  M 83.04 154.50
  L 79.96 160.00"
/>
<path stroke="#808080" vector-effect="non-scaling-stroke" d="
  M 79.96 160.00
  Q 79.66 160.15 79.71 160.50"
/>
<path stroke="#545455" vector-effect="non-scaling-stroke" d="
  M 79.71 160.50
  Q 78.07 162.33 77.50 164.71"
/>
<path stroke="#808080" vector-effect="non-scaling-stroke" d="
  M 77.50 164.71
  Q 69.30 179.83 66.21 196.75"
/>
<path stroke="#2a2a2b" vector-effect="non-scaling-stroke" d="
  M 66.21 196.75
  Q 64.77 203.90 64.69 211.19
  Q 64.69 211.70 64.25 211.43
  Q 63.22 210.79 62.30 210.00
  Q 61.26 209.10 60.87 207.60
  Q 58.95 200.07 59.00 192.36
  Q 59.03 187.60 60.79 182.37
  Q 65.08 169.66 71.79 158.00"
/>
<path stroke="#1e1e1f" vector-effect="non-scaling-stroke" d="
  M 71.79 158.00
  L 73.91 156.87
  A 1.13 0.84 84.0 0 0 74.39 156.06
  Q 74.66 153.90 73.04 155.15
  Q 72.62 155.48 71.99 155.82
  Q 71.07 156.31 70.50 157.21"
/>
<path stroke="#2a2a2b" vector-effect="non-scaling-stroke" d="
  M 70.50 157.21
  Q 69.59 157.93 68.69 159.69
  Q 62.44 171.92 57.79 186.45
  Q 57.15 188.44 57.81 190.43
  Q 58.47 192.41 58.00 195.50
  Q 57.48 198.91 58.58 204.23
  Q 59.87 210.47 65.00 214.21"
/>
<path stroke="#3f3f40" vector-effect="non-scaling-stroke" d="
  M 65.00 214.21
  L 66.75 216.04"
/>
<path stroke="#1e1e1f" vector-effect="non-scaling-stroke" d="
  M 66.75 216.04
  Q 72.31 222.28 78.94 227.29
  Q 86.76 233.22 87.23 233.60
  Q 91.27 236.90 95.28 240.23
  Q 100.58 244.64 101.25 246.50
  Q 101.75 247.87 101.79 246.50"
/>
<path stroke="#808080" vector-effect="non-scaling-stroke" d="
  M 101.79 246.50
  Q 104.79 253.15 99.19 257.19
  Q 97.46 258.44 91.46 260.00"
/>
<path stroke="#2e1e04" vector-effect="non-scaling-stroke" d="
  M 91.46 260.00
  Q 90.95 259.63 90.29 259.75"
/>
<path stroke="#624406" vector-effect="non-scaling-stroke" d="
  M 90.29 259.75
  Q 81.87 247.70 74.60 234.92
  Q 67.53 222.50 56.57 213.38
  Q 56.33 213.18 55.69 212.99
  L 54.75 212.71"
/>
<path stroke="#492f05" vector-effect="non-scaling-stroke" d="
  M 54.75 212.71
  Q 51.76 211.64 48.75 212.71"
/>
<path stroke="#624406" vector-effect="non-scaling-stroke" d="
  M 48.75 212.71
  Q 45.57 213.60 43.04 215.75"
/>
<path stroke="#676767" vector-effect="non-scaling-stroke" d="
  M 66.46 211.25
  L 65.00 214.21"
/>
<path stroke="#393939" vector-effect="non-scaling-stroke" d="
  M 205.54 167.50
  Q 205.53 169.88 207.25 171.46"
/>
<path stroke="#454646" vector-effect="non-scaling-stroke" d="
  M 202.96 208.25
  Q 202.17 209.14 202.75 210.21"
/>
<path stroke="#a2872f" vector-effect="non-scaling-stroke" d="
  M 191.25 218.79
  Q 190.83 218.82 190.71 218.50"
/>
<path stroke="#7b7c7c" vector-effect="non-scaling-stroke" d="
  M 157.79 73.50
  Q 158.00 71.53 157.29 69.75"
/>
<path stroke="#c1c1c0" vector-effect="non-scaling-stroke" d="
  M 150.46 53.75
  Q 145.38 53.35 145.75 58.21"
/>
<path stroke="#dededc" vector-effect="non-scaling-stroke" d="
  M 145.75 58.21
  Q 143.39 58.14 141.03 58.06
  Q 139.12 58.00 137.12 58.74
  Q 135.21 59.43 133.25 59.96"
/>
<path stroke="#d2d2d1" vector-effect="non-scaling-stroke" d="
  M 115.00 61.21
  Q 112.79 59.56 110.00 59.21"
/>
<path stroke="#b5b5b5" vector-effect="non-scaling-stroke" d="
  M 110.00 59.21
  Q 110.45 55.21 106.73 54.12
  A 0.92 0.88 -57.6 0 0 105.87 54.33
  L 101.61 58.16
  A 1.17 0.91 72.3 0 0 101.30 59.00
  Q 101.33 60.07 100.79 61.00"
/>
<path stroke="#d2d2d1" vector-effect="non-scaling-stroke" d="
  M 100.79 61.00
  Q 98.46 62.36 97.81 65.69
  Q 96.66 71.61 98.04 76.25"
/>
<path stroke="#b2b1b1" vector-effect="non-scaling-stroke" d="
  M 98.04 76.25
  L 97.96 79.00"
/>
<path stroke="#a0a0a0" vector-effect="non-scaling-stroke" d="
  M 151.50 54.79
  L 151.46 59.75"
/>
<path stroke="#e1e1e0" vector-effect="non-scaling-stroke" d="
  M 151.46 59.75
  L 145.75 58.21"
/>
<path stroke="#b2b1b1" vector-effect="non-scaling-stroke" d="
  M 148.75 52.71
  L 146.92 54.00
  A 1.42 0.85 20.3 0 1 146.01 54.17
  Q 143.92 53.94 142.57 55.37
  A 1.47 0.69 -56.9 0 1 141.77 55.87
  L 136.75 56.46"
/>
<path stroke="#a87106" vector-effect="non-scaling-stroke" d="
  M 54.75 212.71
  L 48.75 212.71"
/>
<path stroke="#9e6906" vector-effect="non-scaling-stroke" d="
  M 113.54 107.75
  Q 114.27 112.10 119.06 112.06
  Q 125.26 112.02 127.37 111.45
  Q 131.39 110.36 130.79 114.25"
/>
<path stroke="#a78d61" vector-effect="non-scaling-stroke" d="
  M 130.79 114.25
  Q 118.83 118.79 109.59 110.40
  Q 105.23 106.43 102.94 103.56
  Q 102.14 102.57 101.25 102.54"
/>
<path stroke="#644b1f" vector-effect="non-scaling-stroke" d="
  M 101.25 102.54
  Q 100.55 102.31 100.04 101.75"
/>
<path stroke="#b59961" vector-effect="non-scaling-stroke" d="
  M 155.50 100.96
  Q 146.81 103.53 139.77 109.28
  Q 135.72 112.58 130.79 114.25"
/>
<path stroke="#bbbabb" vector-effect="non-scaling-stroke" d="
  M 83.04 154.50
  Q 85.56 155.02 87.06 152.24
  Q 87.39 151.63 87.93 151.20
  Q 92.15 147.80 89.42 145.08
  Q 88.33 144.00 88.30 142.43
  A 0.86 0.82 14.8 0 0 87.86 141.72
  Q 86.83 141.13 86.46 140.00"
/>
<path stroke="#bbbabb" vector-effect="non-scaling-stroke" d="
  M 157.54 75.25
  Q 157.62 73.90 156.96 72.75"
/>
<path stroke="#676767" vector-effect="non-scaling-stroke" d="
  M 156.79 63.75
  L 156.71 65.75"
/>
<path stroke="#bdbdbc" vector-effect="non-scaling-stroke" d="
  M 156.71 65.75
  Q 155.16 61.82 151.46 59.75"
/>
<path stroke="#454646" vector-effect="non-scaling-stroke" d="
  M 71.79 158.00
  Q 71.77 156.89 70.50 157.21"
/>
<path stroke="#6f6f6e" vector-effect="non-scaling-stroke" d="
  M 132.50 74.71
  Q 132.24 74.66 132.04 74.50"
/>
<path stroke="#5b5b5b" vector-effect="non-scaling-stroke" d="
  M 67.96 216.00
  L 66.75 216.04"
/>
<path stroke="#d5ba81" vector-effect="non-scaling-stroke" d="
  M 114.00 75.46
  Q 113.29 75.79 112.54 75.75"
/>
<path stroke="#808080" vector-effect="non-scaling-stroke" d="
  M 112.54 75.75
  Q 113.00 71.93 111.83 68.50
  Q 110.69 65.16 108.33 63.57
  Q 105.52 61.68 102.92 63.97
  Q 101.21 65.47 100.63 68.17
  Q 98.98 75.76 105.25 81.04"
/>
<path stroke="#d5ba81" vector-effect="non-scaling-stroke" d="
  M 105.25 81.04
  Q 104.01 83.72 101.25 84.79"
/>
<path stroke="#dededc" vector-effect="non-scaling-stroke" d="
  M 101.25 84.79
  Q 101.08 81.49 98.90 79.05
  A 1.32 1.16 -67.9 0 1 98.60 78.19
  Q 98.60 77.13 98.04 76.25"
/>
<path stroke="#8e6006" vector-effect="non-scaling-stroke" d="
  M 90.29 259.75
  L 92.50 263.29"
/>
<path stroke="#624406" vector-effect="non-scaling-stroke" d="
  M 92.50 263.29
  L 95.29 267.75"
/>
<path stroke="#a87106" vector-effect="non-scaling-stroke" d="
  M 95.29 267.75
  Q 94.04 270.18 96.04 272.00"
/>
<path stroke="#b27907" vector-effect="non-scaling-stroke" d="
  M 96.04 272.00
  Q 95.86 273.00 96.16 273.87
  Q 96.66 275.34 96.69 275.58
  Q 97.31 280.83 94.90 284.99
  Q 92.84 288.55 88.94 291.93
  Q 82.49 297.50 73.00 295.77
  Q 67.33 294.73 61.73 293.37
  Q 61.17 293.23 61.66 293.55
  Q 62.67 294.22 63.95 294.25
  Q 64.28 294.26 64.51 294.37
  Q 66.20 295.15 63.86 295.02
  Q 63.52 295.00 63.16 294.89
  Q 51.04 290.83 38.25 290.50
  Q 35.04 290.42 26.99 288.38
  A 1.66 1.13 69.4 0 1 26.21 287.83
  Q 25.27 286.67 23.62 286.93
  A 1.10 0.53 -18.0 0 1 22.89 286.83
  L 22.58 286.61
  A 1.25 0.75 48.7 0 0 21.77 286.35
  Q 20.41 286.53 19.56 285.64
  A 1.42 1.01 -12.0 0 0 18.75 285.29
  L 14.47 284.88
  Q 14.10 284.84 13.56 284.99
  L 11.50 285.54"
/>
<path stroke="#866f16" vector-effect="non-scaling-stroke" d="
  M 131.25 75.29
  Q 132.52 76.29 134.04 76.00"
/>
<path stroke="#cc9909" vector-effect="non-scaling-stroke" d="
  M 146.79 81.50
  Q 146.34 82.19 146.95 82.53
  Q 150.47 84.49 154.50 84.21"
/>
<path stroke="#e0aa0a" vector-effect="non-scaling-stroke" d="
  M 154.75 84.46
  Q 154.43 85.46 154.75 86.46"
/>
<path stroke="#f1ca0e" vector-effect="non-scaling-stroke" d="
  M 154.75 86.46
  Q 150.78 85.66 146.75 85.29
  Q 144.00 85.04 142.32 83.14
  A 1.47 0.63 57.7 0 0 141.53 82.60
  L 137.75 82.04"
/>
<path stroke="#f0ca1b" vector-effect="non-scaling-stroke" d="
  M 137.75 82.04
  L 135.81 81.54
  A 1.41 1.33 -9.0 0 1 135.05 81.02
  Q 134.03 79.63 132.68 80.73
  A 2.08 1.51 -60.6 0 1 131.81 81.13
  L 128.14 81.64
  A 1.52 1.49 79.5 0 0 126.90 83.47
  Q 127.85 87.67 125.15 89.72
  A 1.72 1.48 -13.1 0 0 124.60 90.47
  Q 124.02 92.17 123.09 93.71
  Q 122.27 95.05 122.15 95.82
  Q 121.80 98.17 124.50 97.54"
/>
<path stroke="#f1cb2a" vector-effect="non-scaling-stroke" d="
  M 124.50 97.54
  L 124.96 97.25"
/>
<path stroke="#f1ca0e" vector-effect="non-scaling-stroke" d="
  M 124.96 97.25
  Q 123.98 98.68 122.10 97.84
  A 0.56 0.55 27.6 0 0 121.41 98.05
  Q 119.92 100.44 117.22 99.44
  A 1.31 1.00 36.8 0 0 116.29 99.45
  Q 113.73 100.71 114.25 103.71"
/>
<path stroke="#be8d08" vector-effect="non-scaling-stroke" d="
  M 114.25 103.71
  Q 108.89 103.77 104.96 100.25"
/>
<path stroke="#e4af0a" vector-effect="non-scaling-stroke" d="
  M 104.96 100.25
  Q 104.46 99.43 105.57 99.24
  A 0.83 0.83 76.7 0 0 106.22 98.18
  Q 105.72 96.48 107.17 94.05
  Q 107.65 93.24 108.04 92.15
  L 112.25 80.21"
/>
<path stroke="#cc9909" vector-effect="non-scaling-stroke" d="
  M 112.25 80.21
  Q 114.77 79.80 115.80 77.70
  A 0.94 0.68 45.1 0 0 115.67 76.86
  Q 115.25 76.25 115.21 75.50"
/>
<path stroke="#dededc" vector-effect="non-scaling-stroke" d="
  M 161.71 114.50
  Q 158.96 114.14 157.50 111.25
  Q 157.00 110.27 155.50 109.96"
/>
<path stroke="#cececd" vector-effect="non-scaling-stroke" d="
  M 155.50 109.96
  Q 153.58 109.40 151.75 110.25
  Q 149.76 111.18 148.75 111.50
  Q 146.11 112.34 144.40 114.35
  Q 142.28 116.83 142.27 116.85
  Q 139.82 119.06 136.72 120.32
  A 1.66 0.94 29.5 0 1 135.78 120.32
  Q 134.71 120.03 133.86 120.86
  Q 129.31 125.23 123.53 127.74
  Q 119.45 129.51 114.56 127.94
  Q 111.57 126.97 109.95 124.89
  Q 109.43 124.21 107.27 120.31
  Q 105.74 117.55 104.97 114.38
  A 1.15 1.15 82.5 0 0 103.83 113.50
  Q 101.74 113.56 100.00 114.96"
/>
<path stroke="#6f6f6e" vector-effect="non-scaling-stroke" d="
  M 100.00 114.96
  L 99.71 106.50"
/>
<path stroke="#7c7b7b" vector-effect="non-scaling-stroke" d="
  M 100.29 104.50
  L 101.25 102.54"
/>
<path stroke="#7f7f7f" vector-effect="non-scaling-stroke" d="
  M 100.00 114.96
  L 99.79 115.00"
/>
<path stroke="#eeeeed" vector-effect="non-scaling-stroke" d="
  M 155.50 109.96
  Q 153.20 109.92 151.75 110.75
  Q 147.68 113.07 144.57 117.07
  Q 143.15 118.89 141.44 119.84
  Q 136.99 122.32 132.68 125.01
  Q 127.67 128.14 122.04 129.99
  Q 119.88 130.69 117.77 132.28
  A 0.97 0.96 53.8 0 1 116.40 132.06
  Q 115.44 130.70 114.23 129.71
  Q 113.77 129.34 111.46 128.23
  Q 109.12 127.11 107.94 125.06
  Q 105.62 121.04 102.70 118.74
  Q 102.35 118.46 102.15 117.97
  Q 101.33 116.05 99.04 116.50"
/>
<path stroke="#c48b08" vector-effect="non-scaling-stroke" d="
  M 112.25 80.21
  Q 109.50 80.51 108.59 82.96
  A 1.42 1.24 88.6 0 1 108.00 83.67
  Q 105.07 85.31 103.79 88.21
  Q 103.17 89.62 102.01 92.79
  Q 101.16 95.14 101.21 97.75"
/>
<path stroke="#9e6906" vector-effect="non-scaling-stroke" d="
  M 101.21 97.75
  Q 99.21 96.53 97.00 96.79"
/>
<path stroke="#b59961" vector-effect="non-scaling-stroke" d="
  M 100.29 84.75
  Q 100.78 85.25 101.25 84.79"
/>
<path stroke="#919191" vector-effect="non-scaling-stroke" d="
  M 142.00 51.29
  Q 141.31 53.30 139.06 54.31
  Q 137.77 54.90 136.75 56.46"
/>
<path stroke="#9d9d9c" vector-effect="non-scaling-stroke" d="
  M 136.75 56.46
  Q 134.05 57.30 133.25 59.96"
/>
<path stroke="#bdbdbc" vector-effect="non-scaling-stroke" d="
  M 133.25 59.96
  Q 132.88 60.13 132.71 60.50"
/>
<path stroke="#9d9d9c" vector-effect="non-scaling-stroke" d="
  M 132.71 60.50
  L 130.29 61.25"
/>
<path stroke="#daa10a" vector-effect="non-scaling-stroke" d="
  M 190.71 222.50
  Q 190.14 222.41 190.25 222.99
  A 0.40 0.39 -29.7 0 1 190.16 223.31
  Q 187.68 226.11 189.00 229.25
  Q 189.62 230.72 188.44 233.78
  A 1.21 1.10 45.2 0 0 188.48 234.70
  Q 189.10 236.02 189.25 237.75
  Q 189.62 241.87 193.25 243.40
  Q 193.48 243.49 195.11 244.37
  Q 196.08 244.89 197.25 244.81
  A 1.84 1.65 -31.0 0 1 198.19 244.99
  Q 200.74 246.29 204.31 245.56
  Q 207.63 244.89 209.47 244.18
  Q 209.58 244.14 211.23 243.69
  Q 212.33 243.39 212.96 242.37
  Q 213.24 241.91 213.61 241.67
  Q 216.28 239.92 217.69 237.69
  Q 220.12 233.84 221.98 231.73
  Q 224.54 228.84 224.71 225.00"
/>
<path stroke="#a77a08" vector-effect="non-scaling-stroke" d="
  M 217.75 291.29
  L 216.25 290.71"
/>
<path stroke="#d09809" vector-effect="non-scaling-stroke" d="
  M 216.25 290.71
  L 217.75 288.54"
/>
<path stroke="#daa10a" vector-effect="non-scaling-stroke" d="
  M 217.75 288.54
  L 229.00 281.04"
/>
<path stroke="#e8ae0b" vector-effect="non-scaling-stroke" d="
  M 229.00 281.04
  Q 231.80 279.72 234.37 278.00
  Q 235.90 276.98 238.02 276.10
  Q 239.94 275.30 241.69 274.16
  Q 242.31 273.76 244.53 272.85
  Q 246.10 272.20 247.01 270.68
  A 1.88 1.51 -82.5 0 1 247.69 270.03
  Q 256.36 265.78 246.26 269.32
  Q 245.57 269.56 244.92 269.89
  Q 232.73 276.13 229.50 277.50
  Q 225.54 279.18 219.81 280.29
  Q 217.23 280.80 215.02 282.11
  Q 212.56 283.57 210.02 284.92
  Q 203.00 288.66 202.66 288.79
  Q 196.53 291.24 190.25 287.96
  Q 190.10 287.88 188.30 287.11
  Q 186.43 286.32 185.93 284.37
  Q 185.27 281.80 185.24 281.71
  Q 184.14 278.54 184.25 274.50
  Q 184.49 265.48 183.77 249.01
  Q 183.66 246.36 181.94 243.31
  Q 181.08 241.79 181.16 239.55
  A 1.45 0.84 -75.2 0 0 180.91 238.64
  L 178.88 236.33
  A 1.64 1.11 30.4 0 1 178.49 235.51
  L 177.33 221.75
  A 0.59 0.50 -1.5 0 0 176.76 221.29
  Q 175.58 221.26 175.96 219.75"
/>
<path stroke="#c08608" vector-effect="non-scaling-stroke" d="
  M 155.46 99.75
  L 152.73 99.13
  A 0.92 0.87 28.0 0 0 151.90 99.36
  Q 149.88 101.35 147.34 102.46
  Q 143.68 104.06 142.55 104.73
  Q 134.25 109.67 126.00 110.75
  Q 122.62 111.19 116.99 110.10
  Q 116.74 110.05 116.16 109.63
  L 113.54 107.75"
/>
<path stroke="#b17a07" vector-effect="non-scaling-stroke" d="
  M 113.54 107.75
  Q 112.78 105.42 110.25 105.50
  Q 109.16 105.53 109.28 104.95
  A 0.67 0.51 9.2 0 1 109.99 104.57
  Q 122.67 106.44 133.87 101.34
  Q 135.35 100.67 142.66 95.94
  Q 147.02 93.12 151.82 91.09
  Q 153.65 90.31 151.25 89.96"
/>
<path stroke="#f9dd84" vector-effect="non-scaling-stroke" d="
  M 188.25 217.21
  Q 184.25 217.28 180.25 217.27
  Q 177.35 217.27 175.96 219.75"
/>
<path stroke="#edd083" vector-effect="non-scaling-stroke" d="
  M 175.96 219.75
  Q 174.71 224.53 175.29 229.50"
/>
<path stroke="#e1e1e0" vector-effect="non-scaling-stroke" d="
  M 175.29 229.50
  L 175.24 230.44
  A 0.57 0.54 0.5 0 1 174.69 230.95
  Q 171.22 231.14 168.86 233.26
  Q 166.95 234.97 166.40 238.36
  Q 165.85 241.71 166.25 244.25
  Q 166.95 248.69 167.38 253.17
  Q 167.39 253.26 167.65 254.41
  Q 167.85 255.33 167.31 256.12
  A 0.82 0.57 -49.0 0 0 167.22 256.95
  L 167.75 257.71"
/>
<path stroke="#808080" vector-effect="non-scaling-stroke" d="
  M 167.75 257.71
  Q 161.47 263.63 152.94 268.69
  Q 141.04 275.74 127.77 276.72
  Q 124.12 276.98 116.75 276.75
  Q 100.46 276.24 93.04 262.75"
/>
<path stroke="#ac9c80" vector-effect="non-scaling-stroke" d="
  M 93.04 262.75
  L 91.46 260.00"
/>
<path stroke="#9c9c9b" vector-effect="non-scaling-stroke" d="
  M 101.79 246.50
  Q 100.51 243.11 97.71 240.78
  Q 89.38 233.85 80.80 227.21
  Q 74.05 221.98 67.96 216.00"
/>
<path stroke="#bdbdbc" vector-effect="non-scaling-stroke" d="
  M 67.96 216.00
  Q 66.28 213.96 66.46 211.25"
/>
<path stroke="#a8a8a7" vector-effect="non-scaling-stroke" d="
  M 66.46 211.25
  L 66.21 196.75"
/>
<path stroke="#d2d2d1" vector-effect="non-scaling-stroke" d="
  M 77.50 164.71
  Q 79.42 163.06 79.71 160.50"
/>
<path stroke="#e7e7e6" vector-effect="non-scaling-stroke" d="
  M 79.96 160.00
  Q 81.34 160.66 82.56 159.31
  Q 85.50 156.09 90.72 152.17
  Q 92.25 151.02 94.70 150.01
  Q 96.83 149.13 98.83 148.00
  A 0.32 0.32 -43.3 0 0 98.85 147.46
  Q 97.24 146.42 95.31 146.42
  Q 94.78 146.42 94.36 146.20
  Q 90.56 144.14 89.25 142.50
  Q 87.46 140.27 88.75 136.89
  A 1.31 0.32 73.9 0 0 88.71 135.99
  L 88.46 134.75"
/>
<path stroke="#bea26b" vector-effect="non-scaling-stroke" d="
  M 154.25 83.04
  L 152.25 82.96"
/>
<path stroke="#a8a8a7" vector-effect="non-scaling-stroke" d="
  M 156.71 65.75
  L 157.29 69.75"
/>
<path stroke="#d2d2d1" vector-effect="non-scaling-stroke" d="
  M 157.29 69.75
  L 156.96 72.75"
/>
<path stroke="#e7e7e6" vector-effect="non-scaling-stroke" d="
  M 156.96 72.75
  Q 155.79 77.73 153.48 82.30
  A 1.02 0.64 2.7 0 1 152.75 82.71
  Q 152.45 82.76 152.25 82.96"
/>
<path stroke="#d5ba81" vector-effect="non-scaling-stroke" d="
  M 152.25 82.96
  L 146.79 81.50"
/>
<path stroke="#f5de84" vector-effect="non-scaling-stroke" d="
  M 146.79 81.50
  L 146.21 81.00"
/>
<path stroke="#808080" vector-effect="non-scaling-stroke" d="
  M 146.21 81.00
  Q 153.07 76.71 151.28 68.49
  Q 150.68 65.75 148.58 63.92
  Q 142.91 59.00 138.31 64.81
  Q 134.04 70.23 137.25 77.46"
/>
<path stroke="#f5de84" vector-effect="non-scaling-stroke" d="
  M 137.25 77.46
  Q 135.36 77.36 134.04 76.00"
/>
<path stroke="#8f8f8e" vector-effect="non-scaling-stroke" d="
  M 134.04 76.00
  L 132.50 74.71"
/>
<path stroke="#dededc" vector-effect="non-scaling-stroke" d="
  M 132.50 74.71
  Q 132.77 73.57 132.25 71.50
  Q 130.97 66.41 132.71 60.50"
/>
<path stroke="#e1e1e0" vector-effect="non-scaling-stroke" d="
  M 110.00 59.21
  Q 105.16 59.01 100.79 61.00"
/>
<path stroke="#e5b70d" vector-effect="non-scaling-stroke" d="
  M 154.75 86.46
  Q 157.69 87.64 156.43 90.25
  A 0.81 0.80 14.2 0 1 155.68 90.69
  Q 154.08 90.63 153.05 89.40
  A 0.55 0.55 -36.1 0 0 152.33 89.29
  L 151.25 89.96"
/>
<path stroke="#c3990b" vector-effect="non-scaling-stroke" d="
  M 151.25 89.96
  Q 147.04 92.06 141.31 96.06
  Q 129.37 104.40 114.25 103.71"
/>
<path stroke="#f6d72c" vector-effect="non-scaling-stroke" d="
  M 124.96 97.25
  L 136.00 85.96"
/>
<path stroke="#b67f07" vector-effect="non-scaling-stroke" d="
  M 104.96 100.25
  L 101.21 97.75"
/>
<path stroke="#573c05" vector-effect="non-scaling-stroke" d="
  M 112.54 75.75
  Q 112.53 76.70 111.80 76.96
  Q 111.25 77.17 110.92 77.38
  L 105.25 81.04"
/>
<path stroke="#754b05" vector-effect="non-scaling-stroke" d="
  M 100.54 276.00
  L 100.04 278.50"
/>
<path stroke="#825305" vector-effect="non-scaling-stroke" d="
  M 100.04 278.50
  Q 100.15 277.27 99.42 276.42
  Q 99.05 275.98 99.19 276.55
  Q 100.59 282.31 98.38 287.39
  Q 97.14 290.24 94.22 292.91
  Q 91.64 295.28 88.66 297.14
  Q 83.84 300.14 78.28 300.31
  Q 76.69 300.36 73.28 299.70
  Q 70.79 299.21 68.25 299.00
  Q 65.70 298.79 59.81 296.44
  Q 58.79 296.03 56.25 296.04"
/>
<path stroke="#754b05" vector-effect="non-scaling-stroke" d="
  M 56.25 296.04
  Q 48.24 293.10 39.76 292.38
  Q 38.98 292.31 36.38 291.59
  Q 34.62 291.10 32.75 291.54"
/>
<path stroke="#996406" vector-effect="non-scaling-stroke" d="
  M 23.96 289.00
  Q 28.17 288.60 32.05 290.30
  A 1.83 1.66 -34.9 0 0 32.99 290.42
  Q 35.47 290.10 37.57 291.25
  A 1.41 1.31 52.3 0 0 38.48 291.40
  Q 40.64 291.02 42.76 291.39
  Q 46.02 291.97 46.17 291.98
  Q 49.37 292.32 52.56 292.77
  Q 55.16 293.14 58.76 294.39
  Q 66.82 297.20 75.44 297.59
  Q 86.69 298.11 93.51 290.60
  Q 97.23 286.52 98.04 282.08
  Q 98.97 276.93 96.04 272.00"
/>
<path stroke="#2e1e04" vector-effect="non-scaling-stroke" d="
  M 174.71 255.75
  Q 171.72 268.94 170.56 280.69
  Q 170.00 286.45 170.71 293.25"
/>
<path stroke="#2e1e04" vector-effect="non-scaling-stroke" d="
  M 100.54 296.50
  L 100.48 295.66
  A 1.33 0.42 80.4 0 1 100.60 294.79
  Q 105.01 288.64 102.56 280.94
  Q 101.57 277.79 100.54 276.00"
/>
<path stroke="#492f05" vector-effect="non-scaling-stroke" d="
  M 100.54 276.00
  L 95.29 267.75"
/>
<path stroke="#2e1e04" vector-effect="non-scaling-stroke" d="
  M 92.50 263.29
  Q 92.87 263.12 93.04 262.75"
/>
<path stroke="#776008" vector-effect="non-scaling-stroke" d="
  M 146.21 81.00
  Q 141.06 80.92 137.25 77.46"
/>
<path stroke="#f5d61e" vector-effect="non-scaling-stroke" d="
  M 137.75 82.04
  Q 137.98 84.46 136.00 85.96"
/>
<path stroke="#f5d73a" vector-effect="non-scaling-stroke" d="
  M 136.00 85.96
  L 135.98 84.31
  A 0.55 0.48 0.1 0 0 135.44 83.84
  Q 134.56 83.82 133.88 83.33
  A 0.75 0.60 42.9 0 0 133.07 83.27
  Q 132.16 83.91 131.85 85.02
  A 1.98 1.51 82.3 0 1 131.38 85.85
  Q 128.62 88.47 126.37 91.53
  Q 126.32 91.60 124.29 93.62
  Q 123.07 94.83 123.20 96.76
  A 0.87 0.70 -85.1 0 0 123.69 97.49
  Q 124.06 97.62 124.50 97.54"
/>
<path stroke="#cf9408" vector-effect="non-scaling-stroke" d="
  M 229.00 281.04
  Q 226.76 281.00 224.97 282.03
  Q 222.03 283.71 221.94 283.75
  Q 215.91 286.37 208.00 290.50
  Q 201.58 293.85 194.22 293.76
  Q 189.99 293.71 187.16 291.89
  Q 183.83 289.75 182.16 286.06
  Q 180.87 283.19 180.19 281.44
  Q 179.26 279.02 179.33 276.39
  Q 179.42 272.67 179.42 272.60
  Q 179.14 265.68 179.08 258.76
  Q 179.07 258.03 178.64 255.17
  Q 178.37 253.35 178.75 251.50
  Q 179.04 250.07 178.28 245.79
  Q 177.91 243.69 177.99 246.07
  Q 178.00 246.24 178.04 246.42
  Q 179.03 250.66 177.46 254.75"
/>
<path stroke="#c48b08" vector-effect="non-scaling-stroke" d="
  M 177.46 254.75
  Q 177.71 252.24 176.25 249.75
  Q 175.27 248.07 175.46 245.75"
/>
<path stroke="#d0b367" vector-effect="non-scaling-stroke" d="
  M 175.46 245.75
  L 175.29 229.50"
/>
<path stroke="#835705" vector-effect="non-scaling-stroke" d="
  M 216.25 290.71
  L 211.25 294.54"
/>
<path stroke="#a26d06" vector-effect="non-scaling-stroke" d="
  M 211.25 294.54
  Q 207.83 296.07 204.35 297.47
  Q 204.29 297.49 201.72 298.71
  Q 198.69 300.15 194.50 300.00
  Q 189.64 299.82 183.59 297.66
  Q 181.84 297.04 181.26 295.27
  Q 180.21 292.06 178.12 288.92
  Q 176.64 286.67 176.27 284.68
  Q 175.61 281.11 175.75 278.75
  Q 176.31 269.23 175.21 259.75"
/>
<path stroke="#835705" vector-effect="non-scaling-stroke" d="
  M 175.21 259.75
  L 174.71 255.75"
/>
<path stroke="#573c05" vector-effect="non-scaling-stroke" d="
  M 174.71 255.75
  L 174.96 250.00"
/>
<path stroke="#794f05" vector-effect="non-scaling-stroke" d="
  M 175.21 259.75
  Q 174.31 262.32 174.79 265.00"
/>
<path stroke="#754b05" vector-effect="non-scaling-stroke" d="
  M 174.79 265.00
  Q 175.00 270.94 174.19 277.94
  Q 173.61 282.95 174.92 288.04
  Q 174.97 288.20 175.76 292.02
  Q 176.50 295.52 179.06 297.69
  Q 189.80 306.75 203.00 300.29"
/>
<path stroke="#794f05" vector-effect="non-scaling-stroke" d="
  M 203.00 300.29
  Q 208.23 299.00 211.25 294.54"
/>
<path stroke="#b77e07" vector-effect="non-scaling-stroke" d="
  M 217.75 288.54
  Q 215.07 289.05 213.26 291.06
  A 1.70 1.56 -74.1 0 1 212.45 291.56
  Q 209.40 292.41 205.50 294.25
  Q 198.56 297.53 190.70 296.38
  Q 189.73 296.24 188.57 295.63
  Q 187.53 295.09 186.45 294.70
  Q 184.47 293.97 183.54 293.03
  Q 181.60 291.06 180.55 288.53
  Q 179.65 286.37 178.62 283.60
  Q 177.57 280.80 177.67 277.72
  Q 177.74 275.40 177.74 275.27
  Q 177.66 265.01 177.46 254.75"
/>
<path stroke="#b89d65" vector-effect="non-scaling-stroke" d="
  M 175.46 245.75
  L 174.96 250.00"
/>
<path stroke="#636364" vector-effect="non-scaling-stroke" d="
  M 174.96 250.00
  Q 172.00 254.45 167.75 257.71"
/>
<path stroke="#684204" vector-effect="non-scaling-stroke" d="
  M 100.04 278.50
  Q 100.18 280.39 100.42 282.26
  Q 101.58 291.40 94.06 296.31
  Q 92.75 297.17 91.37 298.61
  Q 89.95 300.10 88.56 300.64
  Q 85.16 301.95 81.49 302.22
  Q 81.05 302.25 80.59 302.53
  Q 79.33 303.30 78.12 302.79
  Q 76.33 302.03 76.26 302.02
  Q 74.46 301.63 72.64 301.50
  Q 70.68 301.36 69.14 300.70
  Q 62.84 297.98 56.25 296.04"
/>
<path stroke="#946005" vector-effect="non-scaling-stroke" d="
  M 203.00 300.29
  Q 196.98 302.54 190.81 301.59
  Q 186.62 300.94 184.81 300.31
  Q 181.78 299.25 179.69 296.55
  Q 177.48 293.69 176.06 287.94
  Q 174.97 283.48 174.74 280.20
  Q 174.67 279.24 175.41 273.86
  Q 176.01 269.43 174.79 265.00"
/>
<path stroke="#111112" vector-effect="non-scaling-stroke" d="
  M 145.18 23.36
  Q 144.38 24.80 144.80 26.46
  A 1.29 1.26 52.5 0 1 144.69 27.37
  Q 143.12 30.40 143.89 34.84
  A 0.75 0.75 0.6 0 0 144.48 35.44
  Q 150.26 36.62 155.13 34.05
  Q 155.37 33.92 156.06 33.84
  L 161.01 33.25
  Q 163.93 32.90 162.40 30.02
  Q 158.52 22.72 150.09 20.71
  Q 147.78 20.16 147.54 20.13
  Q 145.50 19.95 145.43 22.43
  Q 145.42 22.92 145.18 23.36"
/>
<path stroke="#1e1e1f" vector-effect="non-scaling-stroke" d="
  M 154.29 52.34
  Q 155.01 53.35 156.07 54.01
  A 0.86 0.79 44.1 0 0 156.94 54.03
  Q 157.98 53.39 157.23 52.39
  Q 156.54 51.48 156.50 51.42
  Q 153.54 46.69 148.04 46.75
  Q 147.00 46.76 147.89 47.28
  Q 150.43 48.79 152.74 50.56
  Q 153.36 51.04 154.29 52.34"
/>
<path stroke="#1e1e1f" vector-effect="non-scaling-stroke" d="
  M 111.32 48.57
  Q 109.73 47.71 107.81 47.98
  Q 107.32 48.04 107.73 48.35
  L 115.92 54.61
  A 0.80 0.50 40.9 0 0 116.77 54.74
  Q 117.10 54.44 116.69 53.81
  Q 115.56 52.09 114.27 50.87
  Q 112.52 49.21 111.32 48.57"
/>
<path stroke="#2a2a2b" vector-effect="non-scaling-stroke" d="
  M 128.1412 69.8221
  A 3.00 1.08 17.5 0 0 125.6048 67.8900
  A 3.00 1.08 17.5 0 0 122.4188 68.0179
  A 3.00 1.08 17.5 0 0 124.9552 69.9500
  A 3.00 1.08 17.5 0 0 128.1412 69.8221"
/>
<path stroke="#3f3f40" vector-effect="non-scaling-stroke" d="
  M 177.90 104.47
  Q 176.97 102.09 174.75 101.15
  Q 172.43 100.16 172.34 100.11
  Q 170.60 99.15 168.87 98.17
  Q 166.38 96.76 167.06 99.19
  Q 167.57 100.99 171.21 108.13
  Q 171.25 108.20 171.54 109.05
  Q 171.87 109.99 173.01 110.02
  A 1.75 1.59 -24.1 0 1 173.90 110.31
  Q 176.02 111.77 177.28 109.27
  Q 177.91 108.03 179.02 107.21
  A 0.92 0.72 -25.3 0 0 179.41 106.43
  Q 179.28 105.58 178.52 105.14
  A 1.50 1.12 10.3 0 1 177.90 104.47"
/>
<path stroke="#111112" vector-effect="non-scaling-stroke" d="
  M 85.68 122.45
  A 1.21 1.21 -74.7 0 0 86.71 124.26
  Q 89.60 124.31 88.84 121.54
  A 0.74 0.70 83.5 0 0 88.20 121.00
  Q 86.55 120.91 85.68 122.45"
/>
<path stroke="#1e1e1f" vector-effect="non-scaling-stroke" d="
  M 192.41 168.09
  Q 192.51 170.85 195.08 170.72
  Q 196.83 170.63 198.11 169.43
  Q 200.74 166.93 197.02 165.14
  A 1.32 1.06 87.4 0 1 196.42 164.46
  Q 196.02 163.38 195.14 163.95
  A 1.34 0.82 88.9 0 0 194.67 164.75
  Q 194.26 166.71 192.74 167.53
  A 0.62 0.61 -14.9 0 0 192.41 168.09"
/>
<path stroke="#3f3f40" vector-effect="non-scaling-stroke" d="
  M 225.29 216.00
  Q 223.27 213.21 220.00 212.21"
/>
<path stroke="#1e1e1f" vector-effect="non-scaling-stroke" d="
  M 220.00 212.21
  Q 215.58 210.59 211.03 209.40
  Q 209.23 208.93 207.25 209.49
  Q 205.07 210.11 207.32 210.39
  Q 211.79 210.96 216.60 212.85
  Q 221.60 214.82 219.33 219.38
  Q 219.31 219.43 218.83 220.67
  Q 218.62 221.19 218.19 221.94
  Q 216.58 224.69 218.98 223.65
  A 1.47 1.18 -83.5 0 0 219.65 222.99
  Q 221.11 220.08 225.06 218.14
  A 1.70 1.69 -12.2 0 0 226.00 216.69
  Q 226.04 215.99 225.29 216.00"
/>
<path stroke="#5b5b5b" vector-effect="non-scaling-stroke" d="
  M 220.00 212.21
  Q 217.98 213.05 220.17 214.09
  Q 221.22 214.60 221.78 215.56
  A 1.57 0.90 74.3 0 0 222.45 216.22
  Q 223.88 216.81 225.29 216.00"
/>
<path stroke="#2d2d2d" vector-effect="non-scaling-stroke" d="
  M 150.75 33.21
  Q 154.16 31.91 157.75 32.25
  Q 161.66 32.62 159.69 30.06
  Q 158.32 28.29 156.47 27.04
  Q 155.43 26.34 155.00 25.04"
/>
<path stroke="#393939" vector-effect="non-scaling-stroke" d="
  M 155.00 25.04
  Q 153.46 25.25 153.05 24.05
  A 1.66 0.68 81.2 0 0 152.56 23.24
  Q 150.70 21.81 148.45 22.78
  A 1.33 1.22 -89.0 0 0 147.81 23.45
  Q 146.05 27.65 145.61 32.18
  A 1.33 0.73 39.8 0 0 145.94 33.02
  L 146.76 34.06
  A 0.75 0.54 58.3 0 0 147.48 34.36
  L 150.75 33.21"
/>
<path stroke="#454646" vector-effect="non-scaling-stroke" d="
  M 155.00 25.04
  Q 155.94 29.41 152.35 31.90
  Q 151.50 32.48 150.75 33.21"
/>
<path stroke="#676767" vector-effect="non-scaling-stroke" d="
  M 148.43 29.78
  Q 147.85 32.11 150.24 31.14
  A 1.04 0.78 88.8 0 0 150.75 30.43
  Q 151.00 29.14 152.22 28.61
  A 0.90 0.70 -14.3 0 0 152.74 27.94
  Q 152.79 26.38 151.46 25.69
  A 1.03 0.99 -45.0 0 0 150.55 25.71
  Q 149.05 26.48 148.76 28.06
  Q 148.49 29.54 148.43 29.78"
/>
<path stroke="#3f3f40" vector-effect="non-scaling-stroke" d="
  M 147.11 64.89
  Q 145.47 63.21 143.92 64.47
  A 0.59 0.55 53.0 0 0 143.84 65.23
  Q 146.04 68.42 149.05 70.87
  Q 149.45 71.20 149.45 70.69
  Q 149.45 67.27 147.11 64.89"
/>
<path stroke="#1e1e1f" vector-effect="non-scaling-stroke" d="
  M 107.54 70.00
  L 108.46 71.50"
/>
<path stroke="#3f3f40" vector-effect="non-scaling-stroke" d="
  M 108.46 71.50
  Q 109.02 74.78 109.72 72.24
  Q 110.60 69.03 108.81 66.19
  Q 107.65 64.36 105.98 65.29
  A 0.63 0.56 -27.6 0 0 105.69 66.05
  L 107.54 70.00"
/>
<path stroke="#5b5b5b" vector-effect="non-scaling-stroke" d="
  M 108.46 71.50
  Q 109.40 69.88 107.54 70.00"
/>
<path stroke="#b18408" vector-effect="non-scaling-stroke" d="
  M 129.71 77.67
  Q 122.20 77.43 130.01 79.38
  A 1.02 0.82 26.9 0 0 130.90 79.19
  Q 131.55 78.56 130.83 78.00
  Q 130.43 77.69 129.71 77.67"
/>
<path stroke="#eeeeed" vector-effect="non-scaling-stroke" d="
  M 116.57 144.38
  Q 114.10 143.92 111.61 144.18
  Q 110.95 144.24 110.50 144.62
  Q 109.34 145.59 110.61 146.07
  Q 110.91 146.19 111.91 146.25
  Q 113.88 146.38 114.32 148.09
  Q 114.45 148.60 114.10 150.75
  Q 113.68 153.33 115.65 154.66
  Q 116.72 155.38 116.74 154.09
  Q 116.86 147.16 123.31 146.54
  Q 125.00 146.38 126.30 145.39
  Q 126.71 145.07 126.21 144.91
  Q 122.51 143.74 118.99 142.11
  Q 118.71 141.98 118.48 142.05
  Q 118.20 142.12 118.01 142.32
  A 1.02 0.57 64.6 0 0 117.95 143.22
  Q 118.46 144.73 116.57 144.38"
/>
<path stroke="#eeeeed" vector-effect="non-scaling-stroke" d="
  M 147.96 146.00
  L 143.07 145.38
  A 0.92 0.74 17.8 0 0 142.25 145.69
  Q 141.57 146.68 142.81 147.19
  Q 147.50 149.12 153.04 150.67
  Q 160.52 152.76 163.24 154.03
  Q 171.23 157.76 176.81 163.69
  Q 178.69 165.68 180.75 165.46"
/>
<path stroke="#e1e1e0" vector-effect="non-scaling-stroke" d="
  M 180.75 165.46
  Q 181.76 165.78 182.10 165.22
  A 1.15 0.67 56.0 0 0 182.04 164.29
  Q 179.67 159.18 176.36 154.60
  Q 176.10 154.24 175.60 154.01
  Q 174.24 153.40 173.44 151.81
  Q 172.22 149.42 170.06 147.30
  Q 167.76 145.05 167.35 144.80
  Q 165.59 143.72 163.22 144.99
  Q 160.53 146.43 157.66 145.21
  Q 156.98 144.92 156.15 145.02
  L 147.96 146.00"
/>
<path stroke="#d1d1d1" vector-effect="non-scaling-stroke" d="
  M 180.75 165.46
  Q 179.59 164.12 175.94 160.31
  Q 171.16 155.33 165.15 152.69
  Q 161.28 151.00 160.04 150.58
  Q 157.39 149.67 154.50 149.75
  Q 151.37 149.83 150.06 148.94
  Q 148.52 147.89 147.96 146.00"
/>
<path stroke="#eeeeed" vector-effect="non-scaling-stroke" d="
  M 110.13 227.64
  A 1.19 1.19 -79.4 0 0 111.75 226.53
  Q 111.74 225.03 111.29 223.26
  Q 110.83 221.48 110.92 220.06
  Q 112.16 201.42 112.07 182.75
  Q 112.05 179.24 112.75 174.25
  Q 113.02 172.29 111.30 172.28
  A 0.68 0.60 -82.8 0 0 110.70 172.81
  Q 108.91 180.71 108.25 189.75
  Q 106.97 207.26 107.46 223.45
  Q 107.51 225.16 108.00 225.95
  Q 108.70 227.08 110.13 227.64"
/>
<path stroke="#ca8f08" vector-effect="non-scaling-stroke" d="
  M 45.71 216.25
  Q 42.77 219.78 42.00 222.25
  Q 40.26 227.84 35.38 229.93
  Q 33.16 230.88 29.99 230.59
  Q 27.89 230.41 24.50 230.00
  Q 23.37 229.86 22.93 229.37
  A 1.23 0.21 50.0 0 0 22.22 228.77
  Q 21.34 228.55 20.97 229.34
  A 1.74 0.72 -75.5 0 1 20.40 230.10
  L 16.12 232.92
  A 1.93 1.34 -12.7 0 0 15.47 233.63
  Q 13.66 237.44 13.87 241.69
  Q 14.18 247.85 14.69 254.01
  Q 14.86 256.10 14.81 259.87
  Q 14.76 262.82 15.09 265.76
  Q 15.25 267.13 14.92 268.21
  Q 14.55 269.41 14.05 270.56
  Q 14.03 270.62 12.58 272.67
  Q 11.75 273.85 12.04 275.49
  Q 12.46 277.89 13.52 280.05
  A 1.29 1.19 -2.2 0 0 14.23 280.66
  Q 16.50 281.43 18.67 282.41
  Q 21.11 283.51 23.16 283.84
  Q 29.79 284.91 41.00 286.00
  Q 49.93 286.87 60.11 290.39
  Q 62.52 291.23 65.02 291.65
  Q 68.58 292.25 70.00 292.75
  Q 78.57 295.75 86.66 290.90
  Q 87.41 290.45 88.03 289.66
  L 93.24 282.94
  Q 93.57 282.52 93.64 282.07
  Q 94.51 276.75 94.28 271.35
  Q 94.25 270.72 93.97 270.24
  Q 93.66 269.72 93.29 269.25"
/>
<path stroke="#dba20a" vector-effect="non-scaling-stroke" d="
  M 93.29 269.25
  Q 91.12 266.16 89.41 262.82
  Q 87.26 258.64 85.69 256.34
  Q 75.99 242.12 73.50 237.00
  Q 67.21 224.07 56.40 214.61
  Q 53.37 211.96 49.93 213.76
  Q 49.52 213.98 48.99 213.97
  Q 46.62 213.94 45.71 216.25"
/>
<path stroke="#e4aa0b" vector-effect="non-scaling-stroke" d="
  M 93.29 269.25
  L 92.75 270.81
  Q 92.53 271.46 92.56 271.74
  Q 93.42 279.20 89.26 284.99
  Q 87.03 288.11 86.18 288.92
  Q 84.50 290.54 81.69 291.44
  Q 77.18 292.87 73.41 292.07
  Q 69.24 291.20 69.13 291.18
  Q 64.50 290.55 60.06 289.14
  Q 54.10 287.27 51.13 286.64
  Q 45.59 285.47 40.10 284.09
  Q 39.03 283.82 37.34 283.85
  Q 35.92 283.87 34.55 283.57
  Q 31.57 282.90 30.48 282.83
  Q 27.93 282.67 25.39 282.35
  Q 21.33 281.82 20.62 281.61
  Q 18.38 280.95 16.31 279.19
  Q 13.76 277.02 14.25 274.00
  Q 14.46 272.69 16.51 268.65
  Q 17.51 266.69 17.48 264.59
  Q 17.39 259.59 17.04 254.61
  Q 16.92 252.99 15.81 247.51
  Q 14.81 242.56 15.62 237.52
  Q 16.01 235.11 17.68 233.75
  Q 21.35 230.76 26.24 231.50
  Q 28.71 231.88 28.79 231.88
  Q 33.36 232.27 36.19 231.19
  Q 40.58 229.50 42.83 224.03
  Q 44.42 220.20 45.71 216.25"
/>
</g>
<path fill="#020204" d="
  M 228.71 220.25
  Q 227.97 219.66 227.43 220.43
  Q 225.90 222.61 224.71 225.00
  Q 218.47 236.45 206.47 237.55
  Q 199.38 238.20 195.03 235.20
  Q 189.36 231.30 190.71 222.50
  L 191.25 218.79
  Q 194.33 211.08 202.75 210.21
  Q 203.50 210.15 204.06 209.76
  Q 204.44 209.50 203.96 209.30
  Q 203.25 209.00 202.96 208.25
  Q 208.09 195.72 209.09 182.26
  Q 209.28 179.67 208.56 176.82
  Q 207.88 174.15 207.25 171.46
  Q 207.28 169.08 205.54 167.50
  Q 203.71 164.85 202.06 162.10
  Q 200.24 159.08 198.14 157.06
  Q 194.78 153.81 192.25 151.75
  Q 190.10 150.00 186.92 148.75
  Q 186.37 148.53 185.92 148.61
  Q 184.78 148.80 185.43 149.74
  Q 185.71 150.13 186.33 150.45
  Q 196.55 155.60 202.02 165.28
  Q 204.82 170.24 205.84 173.69
  Q 207.05 177.75 207.00 183.00
  Q 206.87 197.40 201.66 208.23
  A 1.17 1.10 2.9 0 1 200.95 208.83
  Q 193.46 211.09 190.71 218.50
  Q 189.22 218.34 188.25 217.21
  Q 193.22 191.81 186.06 167.69
  Q 183.15 157.88 176.43 149.27
  Q 176.39 149.22 174.54 147.25
  Q 172.53 145.11 172.00 141.75
  Q 169.76 127.54 161.71 114.50
  Q 159.04 109.40 157.69 103.81
  Q 157.39 102.60 155.50 100.96
  L 155.46 99.75
  Q 157.34 97.32 157.49 94.51
  Q 157.55 93.21 157.75 91.92
  Q 158.60 86.36 154.75 84.46
  Q 154.71 84.25 154.50 84.21
  Q 154.13 83.70 154.25 83.04
  Q 156.86 79.56 157.54 75.25
  Q 157.88 74.42 157.79 73.50
  Q 158.51 68.50 156.79 63.75
  Q 155.36 58.51 151.50 54.79
  L 150.46 53.75
  Q 149.76 52.96 148.75 52.71
  Q 145.69 50.69 142.00 51.29
  Q 133.03 52.75 130.29 61.25
  Q 128.18 68.30 132.04 74.50
  Q 131.86 75.14 131.25 75.29
  Q 123.15 72.38 115.21 75.50
  L 114.00 75.46
  Q 116.14 72.96 116.50 71.00
  Q 117.34 66.39 115.00 61.21
  Q 113.81 56.99 110.50 54.78
  Q 107.16 52.56 103.67 53.55
  Q 99.83 54.63 98.25 59.25
  Q 94.84 69.24 97.96 79.00
  L 100.29 84.75
  Q 100.79 85.99 99.94 86.69
  Q 94.93 90.76 97.00 96.79
  L 100.04 101.75
  L 100.29 104.50
  L 99.71 106.50
  Q 99.27 106.64 98.99 106.93
  Q 98.76 107.17 98.69 107.66
  Q 98.40 109.81 98.73 111.95
  Q 98.79 112.35 99.16 112.81
  Q 99.90 113.75 99.79 115.00
  L 99.04 116.50
  L 88.46 134.75
  Q 86.96 137.18 86.46 140.00
  Q 85.19 144.04 84.75 149.25
  Q 84.53 151.81 83.04 154.50
  L 79.96 160.00
  Q 79.66 160.15 79.71 160.50
  Q 78.07 162.33 77.50 164.71
  Q 69.30 179.83 66.21 196.75
  Q 64.77 203.90 64.69 211.19
  Q 64.69 211.70 64.25 211.43
  Q 63.22 210.79 62.30 210.00
  Q 61.26 209.10 60.87 207.60
  Q 58.95 200.07 59.00 192.36
  Q 59.03 187.60 60.79 182.37
  Q 65.08 169.66 71.79 158.00
  L 73.91 156.87
  A 1.13 0.84 84.0 0 0 74.39 156.06
  Q 74.66 153.90 73.04 155.15
  Q 72.62 155.48 71.99 155.82
  Q 71.07 156.31 70.50 157.21
  Q 69.59 157.93 68.69 159.69
  Q 62.44 171.92 57.79 186.45
  Q 57.15 188.44 57.81 190.43
  Q 58.47 192.41 58.00 195.50
  Q 57.48 198.91 58.58 204.23
  Q 59.87 210.47 65.00 214.21
  L 66.75 216.04
  Q 72.31 222.28 78.94 227.29
  Q 86.76 233.22 87.23 233.60
  Q 91.27 236.90 95.28 240.23
  Q 100.58 244.64 101.25 246.50
  Q 101.75 247.87 101.79 246.50
  Q 104.79 253.15 99.19 257.19
  Q 97.46 258.44 91.46 260.00
  Q 90.95 259.63 90.29 259.75
  Q 81.87 247.70 74.60 234.92
  Q 67.53 222.50 56.57 213.38
  Q 56.33 213.18 55.69 212.99
  L 54.75 212.71
  Q 51.76 211.64 48.75 212.71
  Q 45.57 213.60 43.04 215.75
  Q 39.93 209.74 41.50 202.25
  Q 42.65 196.78 45.24 192.86
  Q 47.64 189.21 47.68 189.14
  Q 56.03 174.51 60.31 157.06
  Q 62.66 147.52 69.56 139.57
  Q 77.32 130.64 84.43 121.18
  Q 87.87 116.60 90.45 111.47
  Q 92.16 108.08 92.15 104.25
  Q 92.13 98.24 91.67 92.26
  Q 90.30 74.36 90.00 51.50
  Q 89.85 40.27 94.09 30.71
  Q 98.39 21.01 106.45 15.35
  Q 116.80 8.09 131.00 8.50
  Q 138.38 8.72 144.75 10.61
  Q 151.52 12.61 157.37 16.13
  Q 165.62 21.08 170.98 29.49
  Q 176.45 38.09 178.00 46.25
  Q 178.44 48.56 179.20 55.61
  Q 179.67 59.95 179.81 65.03
  Q 180.31 81.92 181.06 86.94
  Q 182.37 95.61 188.64 107.09
  Q 198.10 124.41 200.56 127.44
  Q 206.67 134.96 207.94 136.31
  Q 211.75 140.38 214.29 143.49
  Q 217.04 146.84 219.22 151.66
  Q 224.00 162.18 227.54 173.19
  Q 232.32 188.06 232.25 202.00
  Q 232.22 207.20 230.47 213.60
  Q 230.33 214.13 230.05 216.96
  Q 229.87 218.74 228.71 220.25
  Z
  M 145.18 23.36
  Q 144.38 24.80 144.80 26.46
  A 1.29 1.26 52.5 0 1 144.69 27.37
  Q 143.12 30.40 143.89 34.84
  A 0.75 0.75 0.6 0 0 144.48 35.44
  Q 150.26 36.62 155.13 34.05
  Q 155.37 33.92 156.06 33.84
  L 161.01 33.25
  Q 163.93 32.90 162.40 30.02
  Q 158.52 22.72 150.09 20.71
  Q 147.78 20.16 147.54 20.13
  Q 145.50 19.95 145.43 22.43
  Q 145.42 22.92 145.18 23.36
  Z
  M 154.29 52.34
  Q 155.01 53.35 156.07 54.01
  A 0.86 0.79 44.1 0 0 156.94 54.03
  Q 157.98 53.39 157.23 52.39
  Q 156.54 51.48 156.50 51.42
  Q 153.54 46.69 148.04 46.75
  Q 147.00 46.76 147.89 47.28
  Q 150.43 48.79 152.74 50.56
  Q 153.36 51.04 154.29 52.34
  Z
  M 111.32 48.57
  Q 109.73 47.71 107.81 47.98
  Q 107.32 48.04 107.73 48.35
  L 115.92 54.61
  A 0.80 0.50 40.9 0 0 116.77 54.74
  Q 117.10 54.44 116.69 53.81
  Q 115.56 52.09 114.27 50.87
  Q 112.52 49.21 111.32 48.57
  Z
  M 128.1412 69.8221
  A 3.00 1.08 17.5 0 0 125.6048 67.8900
  A 3.00 1.08 17.5 0 0 122.4188 68.0179
  A 3.00 1.08 17.5 0 0 124.9552 69.9500
  A 3.00 1.08 17.5 0 0 128.1412 69.8221
  Z
  M 177.90 104.47
  Q 176.97 102.09 174.75 101.15
  Q 172.43 100.16 172.34 100.11
  Q 170.60 99.15 168.87 98.17
  Q 166.38 96.76 167.06 99.19
  Q 167.57 100.99 171.21 108.13
  Q 171.25 108.20 171.54 109.05
  Q 171.87 109.99 173.01 110.02
  A 1.75 1.59 -24.1 0 1 173.90 110.31
  Q 176.02 111.77 177.28 109.27
  Q 177.91 108.03 179.02 107.21
  A 0.92 0.72 -25.3 0 0 179.41 106.43
  Q 179.28 105.58 178.52 105.14
  A 1.50 1.12 10.3 0 1 177.90 104.47
  Z
  M 85.68 122.45
  A 1.21 1.21 -74.7 0 0 86.71 124.26
  Q 89.60 124.31 88.84 121.54
  A 0.74 0.70 83.5 0 0 88.20 121.00
  Q 86.55 120.91 85.68 122.45
  Z
  M 192.41 168.09
  Q 192.51 170.85 195.08 170.72
  Q 196.83 170.63 198.11 169.43
  Q 200.74 166.93 197.02 165.14
  A 1.32 1.06 87.4 0 1 196.42 164.46
  Q 196.02 163.38 195.14 163.95
  A 1.34 0.82 88.9 0 0 194.67 164.75
  Q 194.26 166.71 192.74 167.53
  A 0.62 0.61 -14.9 0 0 192.41 168.09
  Z
  M 225.29 216.00
  Q 223.27 213.21 220.00 212.21
  Q 215.58 210.59 211.03 209.40
  Q 209.23 208.93 207.25 209.49
  Q 205.07 210.11 207.32 210.39
  Q 211.79 210.96 216.60 212.85
  Q 221.60 214.82 219.33 219.38
  Q 219.31 219.43 218.83 220.67
  Q 218.62 221.19 218.19 221.94
  Q 216.58 224.69 218.98 223.65
  A 1.47 1.18 -83.5 0 0 219.65 222.99
  Q 221.11 220.08 225.06 218.14
  A 1.70 1.69 -12.2 0 0 226.00 216.69
  Q 226.04 215.99 225.29 216.00
  Z"
/>
<path fill="#202020" d="
  M 145.43 22.43
  Q 145.50 19.95 147.54 20.13
  Q 147.78 20.16 150.09 20.71
  Q 158.52 22.72 162.40 30.02
  Q 163.93 32.90 161.01 33.25
  L 156.06 33.84
  Q 155.37 33.92 155.13 34.05
  Q 150.26 36.62 144.48 35.44
  A 0.75 0.75 0.6 0 1 143.89 34.84
  Q 143.12 30.40 144.69 27.37
  A 1.29 1.26 52.5 0 0 144.80 26.46
  Q 144.38 24.80 145.18 23.36
  Q 145.42 22.92 145.43 22.43
  Z
  M 150.75 33.21
  Q 154.16 31.91 157.75 32.25
  Q 161.66 32.62 159.69 30.06
  Q 158.32 28.29 156.47 27.04
  Q 155.43 26.34 155.00 25.04
  Q 153.46 25.25 153.05 24.05
  A 1.66 0.68 81.2 0 0 152.56 23.24
  Q 150.70 21.81 148.45 22.78
  A 1.33 1.22 -89.0 0 0 147.81 23.45
  Q 146.05 27.65 145.61 32.18
  A 1.33 0.73 39.8 0 0 145.94 33.02
  L 146.76 34.06
  A 0.75 0.54 58.3 0 0 147.48 34.36
  L 150.75 33.21
  Z"
/>
<path fill="#515252" d="
  M 155.00 25.04
  Q 155.94 29.41 152.35 31.90
  Q 151.50 32.48 150.75 33.21
  L 147.48 34.36
  A 0.75 0.54 58.3 0 1 146.76 34.06
  L 145.94 33.02
  A 1.33 0.73 39.8 0 1 145.61 32.18
  Q 146.05 27.65 147.81 23.45
  A 1.33 1.22 -89.0 0 1 148.45 22.78
  Q 150.70 21.81 152.56 23.24
  A 1.66 0.68 81.2 0 1 153.05 24.05
  Q 153.46 25.25 155.00 25.04
  Z
  M 148.43 29.78
  Q 147.85 32.11 150.24 31.14
  A 1.04 0.78 88.8 0 0 150.75 30.43
  Q 151.00 29.14 152.22 28.61
  A 0.90 0.70 -14.3 0 0 152.74 27.94
  Q 152.79 26.38 151.46 25.69
  A 1.03 0.99 -45.0 0 0 150.55 25.71
  Q 149.05 26.48 148.76 28.06
  Q 148.49 29.54 148.43 29.78
  Z"
/>
<path fill="#393939" d="
  M 155.00 25.04
  Q 155.43 26.34 156.47 27.04
  Q 158.32 28.29 159.69 30.06
  Q 161.66 32.62 157.75 32.25
  Q 154.16 31.91 150.75 33.21
  Q 151.50 32.48 152.35 31.90
  Q 155.94 29.41 155.00 25.04
  Z"
/>
<path fill="#7c7c7c" d="
  M 148.76 28.06
  Q 149.05 26.48 150.55 25.71
  A 1.03 0.99 -45.0 0 1 151.46 25.69
  Q 152.79 26.38 152.74 27.94
  A 0.90 0.70 -14.3 0 1 152.22 28.61
  Q 151.00 29.14 150.75 30.43
  A 1.04 0.78 88.8 0 1 150.24 31.14
  Q 147.85 32.11 148.43 29.78
  Q 148.49 29.54 148.76 28.06
  Z"
/>
<path fill="#393939" d="
  M 152.74 50.56
  Q 150.43 48.79 147.89 47.28
  Q 147.00 46.76 148.04 46.75
  Q 153.54 46.69 156.50 51.42
  Q 156.54 51.48 157.23 52.39
  Q 157.98 53.39 156.94 54.03
  A 0.86 0.79 44.1 0 1 156.07 54.01
  Q 155.01 53.35 154.29 52.34
  Q 153.36 51.04 152.74 50.56
  Z"
/>
<path fill="#393939" d="
  M 114.27 50.87
  Q 115.56 52.09 116.69 53.81
  Q 117.10 54.44 116.77 54.74
  A 0.80 0.50 40.9 0 1 115.92 54.61
  L 107.73 48.35
  Q 107.32 48.04 107.81 47.98
  Q 109.73 47.71 111.32 48.57
  Q 112.52 49.21 114.27 50.87
  Z"
/>
<path fill="#7c7c7c" d="
  M 142.00 51.29
  Q 141.31 53.30 139.06 54.31
  Q 137.77 54.90 136.75 56.46
  Q 134.05 57.30 133.25 59.96
  Q 132.88 60.13 132.71 60.50
  L 130.29 61.25
  Q 133.03 52.75 142.00 51.29
  Z"
/>
<path fill="#a5a5a5" d="
  M 142.00 51.29
  Q 145.69 50.69 148.75 52.71
  L 146.92 54.00
  A 1.42 0.85 20.3 0 1 146.01 54.17
  Q 143.92 53.94 142.57 55.37
  A 1.47 0.69 -56.9 0 1 141.77 55.87
  L 136.75 56.46
  Q 137.77 54.90 139.06 54.31
  Q 141.31 53.30 142.00 51.29
  Z"
/>
<path fill="#bebdbc" d="
  M 148.75 52.71
  Q 149.76 52.96 150.46 53.75
  Q 145.38 53.35 145.75 58.21
  Q 143.39 58.14 141.03 58.06
  Q 139.12 58.00 137.12 58.74
  Q 135.21 59.43 133.25 59.96
  Q 134.05 57.30 136.75 56.46
  L 141.77 55.87
  A 1.47 0.69 -56.9 0 0 142.57 55.37
  Q 143.92 53.94 146.01 54.17
  A 1.42 0.85 20.3 0 0 146.92 54.00
  L 148.75 52.71
  Z"
/>
<path fill="#a5a5a5" d="
  M 115.00 61.21
  Q 112.79 59.56 110.00 59.21
  Q 110.45 55.21 106.73 54.12
  A 0.92 0.88 -57.6 0 0 105.87 54.33
  L 101.61 58.16
  A 1.17 0.91 72.3 0 0 101.30 59.00
  Q 101.33 60.07 100.79 61.00
  Q 98.46 62.36 97.81 65.69
  Q 96.66 71.61 98.04 76.25
  L 97.96 79.00
  Q 94.84 69.24 98.25 59.25
  Q 99.83 54.63 103.67 53.55
  Q 107.16 52.56 110.50 54.78
  Q 113.81 56.99 115.00 61.21
  Z"
/>
<path fill="#c4c4c4" d="
  M 150.46 53.75
  L 151.50 54.79
  L 151.46 59.75
  L 145.75 58.21
  Q 145.38 53.35 150.46 53.75
  Z"
/>
<path fill="#c4c4c4" d="
  M 110.00 59.21
  Q 105.16 59.01 100.79 61.00
  Q 101.33 60.07 101.30 59.00
  A 1.17 0.91 72.3 0 1 101.61 58.16
  L 105.87 54.33
  A 0.92 0.88 -57.6 0 1 106.73 54.12
  Q 110.45 55.21 110.00 59.21
  Z"
/>
<path fill="#7c7c7c" d="
  M 151.50 54.79
  Q 155.36 58.51 156.79 63.75
  L 156.71 65.75
  Q 155.16 61.82 151.46 59.75
  L 151.50 54.79
  Z"
/>
<path fill="#fefefc" d="
  M 145.75 58.21
  L 151.46 59.75
  Q 155.16 61.82 156.71 65.75
  L 157.29 69.75
  L 156.96 72.75
  Q 155.79 77.73 153.48 82.30
  A 1.02 0.64 2.7 0 1 152.75 82.71
  Q 152.45 82.76 152.25 82.96
  L 146.79 81.50
  L 146.21 81.00
  Q 153.07 76.71 151.28 68.49
  Q 150.68 65.75 148.58 63.92
  Q 142.91 59.00 138.31 64.81
  Q 134.04 70.23 137.25 77.46
  Q 135.36 77.36 134.04 76.00
  L 132.50 74.71
  Q 132.77 73.57 132.25 71.50
  Q 130.97 66.41 132.71 60.50
  Q 132.88 60.13 133.25 59.96
  Q 135.21 59.43 137.12 58.74
  Q 139.12 58.00 141.03 58.06
  Q 143.39 58.14 145.75 58.21
  Z"
/>
<path fill="#fefefc" d="
  M 110.00 59.21
  Q 112.79 59.56 115.00 61.21
  Q 117.34 66.39 116.50 71.00
  Q 116.14 72.96 114.00 75.46
  Q 113.29 75.79 112.54 75.75
  Q 113.00 71.93 111.83 68.50
  Q 110.69 65.16 108.33 63.57
  Q 105.52 61.68 102.92 63.97
  Q 101.21 65.47 100.63 68.17
  Q 98.98 75.76 105.25 81.04
  Q 104.01 83.72 101.25 84.79
  Q 101.08 81.49 98.90 79.05
  A 1.32 1.16 -67.9 0 1 98.60 78.19
  Q 98.60 77.13 98.04 76.25
  Q 96.66 71.61 97.81 65.69
  Q 98.46 62.36 100.79 61.00
  Q 105.16 59.01 110.00 59.21
  Z"
/>
<path fill="#bebdbc" d="
  M 132.71 60.50
  Q 130.97 66.41 132.25 71.50
  Q 132.77 73.57 132.50 74.71
  Q 132.24 74.66 132.04 74.50
  Q 128.18 68.30 130.29 61.25
  L 132.71 60.50
  Z"
/>
<path fill="#020204" d="
  M 146.21 81.00
  Q 141.06 80.92 137.25 77.46
  Q 134.04 70.23 138.31 64.81
  Q 142.91 59.00 148.58 63.92
  Q 150.68 65.75 151.28 68.49
  Q 153.07 76.71 146.21 81.00
  Z
  M 147.11 64.89
  Q 145.47 63.21 143.92 64.47
  A 0.59 0.55 53.0 0 0 143.84 65.23
  Q 146.04 68.42 149.05 70.87
  Q 149.45 71.20 149.45 70.69
  Q 149.45 67.27 147.11 64.89
  Z"
/>
<path fill="#020204" d="
  M 112.54 75.75
  Q 112.53 76.70 111.80 76.96
  Q 111.25 77.17 110.92 77.38
  L 105.25 81.04
  Q 98.98 75.76 100.63 68.17
  Q 101.21 65.47 102.92 63.97
  Q 105.52 61.68 108.33 63.57
  Q 110.69 65.16 111.83 68.50
  Q 113.00 71.93 112.54 75.75
  Z
  M 107.54 70.00
  L 108.46 71.50
  Q 109.02 74.78 109.72 72.24
  Q 110.60 69.03 108.81 66.19
  Q 107.65 64.36 105.98 65.29
  A 0.63 0.56 -27.6 0 0 105.69 66.05
  L 107.54 70.00
  Z"
/>
<path fill="#515252" d="
  M 156.79 63.75
  Q 158.51 68.50 157.79 73.50
  Q 158.00 71.53 157.29 69.75
  L 156.71 65.75
  L 156.79 63.75
  Z"
/>
<path fill="#7c7c7c" d="
  M 147.11 64.89
  Q 149.45 67.27 149.45 70.69
  Q 149.45 71.20 149.05 70.87
  Q 146.04 68.42 143.84 65.23
  A 0.59 0.55 53.0 0 1 143.92 64.47
  Q 145.47 63.21 147.11 64.89
  Z"
/>
<path fill="#7c7c7c" d="
  M 108.46 71.50
  Q 109.40 69.88 107.54 70.00
  L 105.69 66.05
  A 0.63 0.56 -27.6 0 1 105.98 65.29
  Q 107.65 64.36 108.81 66.19
  Q 110.60 69.03 109.72 72.24
  Q 109.02 74.78 108.46 71.50
  Z"
/>
<ellipse fill="#515252" cx="0.00" cy="0.00" transform="translate(125.28,68.92) rotate(17.5)" rx="3.00" ry="1.08"/>
<path fill="#a5a5a5" d="
  M 157.29 69.75
  Q 158.00 71.53 157.79 73.50
  Q 157.88 74.42 157.54 75.25
  Q 157.62 73.90 156.96 72.75
  L 157.29 69.75
  Z"
/>
<path fill="#393939" d="
  M 107.54 70.00
  Q 109.40 69.88 108.46 71.50
  L 107.54 70.00
  Z"
/>
<path fill="#d0cfd0" d="
  M 156.96 72.75
  Q 157.62 73.90 157.54 75.25
  Q 156.86 79.56 154.25 83.04
  L 152.25 82.96
  Q 152.45 82.76 152.75 82.71
  A 1.02 0.64 2.7 0 0 153.48 82.30
  Q 155.79 77.73 156.96 72.75
  Z"
/>
<path fill="#ecbd0b" d="
  M 131.25 75.29
  Q 132.52 76.29 134.04 76.00
  Q 135.36 77.36 137.25 77.46
  Q 141.06 80.92 146.21 81.00
  L 146.79 81.50
  Q 146.34 82.19 146.95 82.53
  Q 150.47 84.49 154.50 84.21
  Q 154.71 84.25 154.75 84.46
  Q 154.43 85.46 154.75 86.46
  Q 150.78 85.66 146.75 85.29
  Q 144.00 85.04 142.32 83.14
  A 1.47 0.63 57.7 0 0 141.53 82.60
  L 137.75 82.04
  L 135.81 81.54
  A 1.41 1.33 -9.0 0 1 135.05 81.02
  Q 134.03 79.63 132.68 80.73
  A 2.08 1.51 -60.6 0 1 131.81 81.13
  L 128.14 81.64
  A 1.52 1.49 79.5 0 0 126.90 83.47
  Q 127.85 87.67 125.15 89.72
  A 1.72 1.48 -13.1 0 0 124.60 90.47
  Q 124.02 92.17 123.09 93.71
  Q 122.27 95.05 122.15 95.82
  Q 121.80 98.17 124.50 97.54
  L 124.96 97.25
  Q 123.98 98.68 122.10 97.84
  A 0.56 0.55 27.6 0 0 121.41 98.05
  Q 119.92 100.44 117.22 99.44
  A 1.31 1.00 36.8 0 0 116.29 99.45
  Q 113.73 100.71 114.25 103.71
  Q 108.89 103.77 104.96 100.25
  Q 104.46 99.43 105.57 99.24
  A 0.83 0.83 76.7 0 0 106.22 98.18
  Q 105.72 96.48 107.17 94.05
  Q 107.65 93.24 108.04 92.15
  L 112.25 80.21
  Q 114.77 79.80 115.80 77.70
  A 0.94 0.68 45.1 0 0 115.67 76.86
  Q 115.25 76.25 115.21 75.50
  Q 123.15 72.38 131.25 75.29
  Z
  M 129.71 77.67
  Q 122.20 77.43 130.01 79.38
  A 1.02 0.82 26.9 0 0 130.90 79.19
  Q 131.55 78.56 130.83 78.00
  Q 130.43 77.69 129.71 77.67
  Z"
/>
<path fill="#202020" d="
  M 132.04 74.50
  Q 132.24 74.66 132.50 74.71
  L 134.04 76.00
  Q 132.52 76.29 131.25 75.29
  Q 131.86 75.14 132.04 74.50
  Z"
/>
<path fill="#ac7506" d="
  M 114.00 75.46
  L 115.21 75.50
  Q 115.25 76.25 115.67 76.86
  A 0.94 0.68 45.1 0 1 115.80 77.70
  Q 114.77 79.80 112.25 80.21
  Q 109.50 80.51 108.59 82.96
  A 1.42 1.24 88.6 0 1 108.00 83.67
  Q 105.07 85.31 103.79 88.21
  Q 103.17 89.62 102.01 92.79
  Q 101.16 95.14 101.21 97.75
  Q 99.21 96.53 97.00 96.79
  Q 94.93 90.76 99.94 86.69
  Q 100.79 85.99 100.29 84.75
  Q 100.78 85.25 101.25 84.79
  Q 104.01 83.72 105.25 81.04
  L 110.92 77.38
  Q 111.25 77.17 111.80 76.96
  Q 112.53 76.70 112.54 75.75
  Q 113.29 75.79 114.00 75.46
  Z"
/>
<path fill="#bebdbc" d="
  M 98.04 76.25
  Q 98.60 77.13 98.60 78.19
  A 1.32 1.16 -67.9 0 0 98.90 79.05
  Q 101.08 81.49 101.25 84.79
  Q 100.78 85.25 100.29 84.75
  L 97.96 79.00
  L 98.04 76.25
  Z"
/>
<path fill="#754a04" d="
  M 130.83 78.00
  Q 131.55 78.56 130.90 79.19
  A 1.02 0.82 26.9 0 1 130.01 79.38
  Q 122.20 77.43 129.71 77.67
  Q 130.43 77.69 130.83 78.00
  Z"
/>
<path fill="#dca109" d="
  M 112.25 80.21
  L 108.04 92.15
  Q 107.65 93.24 107.17 94.05
  Q 105.72 96.48 106.22 98.18
  A 0.83 0.83 76.7 0 1 105.57 99.24
  Q 104.46 99.43 104.96 100.25
  L 101.21 97.75
  Q 101.16 95.14 102.01 92.79
  Q 103.17 89.62 103.79 88.21
  Q 105.07 85.31 108.00 83.67
  A 1.42 1.24 88.6 0 0 108.59 82.96
  Q 109.50 80.51 112.25 80.21
  Z"
/>
<path fill="#f3d62b" d="
  M 137.75 82.04
  Q 137.98 84.46 136.00 85.96
  L 135.98 84.31
  A 0.55 0.48 0.1 0 0 135.44 83.84
  Q 134.56 83.82 133.88 83.33
  A 0.75 0.60 42.9 0 0 133.07 83.27
  Q 132.16 83.91 131.85 85.02
  A 1.98 1.51 82.3 0 1 131.38 85.85
  Q 128.62 88.47 126.37 91.53
  Q 126.32 91.60 124.29 93.62
  Q 123.07 94.83 123.20 96.76
  A 0.87 0.70 -85.1 0 0 123.69 97.49
  Q 124.06 97.62 124.50 97.54
  Q 121.80 98.17 122.15 95.82
  Q 122.27 95.05 123.09 93.71
  Q 124.02 92.17 124.60 90.47
  A 1.72 1.48 -13.1 0 1 125.15 89.72
  Q 127.85 87.67 126.90 83.47
  A 1.52 1.49 79.5 0 1 128.14 81.64
  L 131.81 81.13
  A 2.08 1.51 -60.6 0 0 132.68 80.73
  Q 134.03 79.63 135.05 81.02
  A 1.41 1.33 -9.0 0 0 135.81 81.54
  L 137.75 82.04
  Z"
/>
<path fill="#ac7506" d="
  M 146.79 81.50
  L 152.25 82.96
  L 154.25 83.04
  Q 154.13 83.70 154.50 84.21
  Q 150.47 84.49 146.95 82.53
  Q 146.34 82.19 146.79 81.50
  Z"
/>
<path fill="#f6d610" d="
  M 137.75 82.04
  L 141.53 82.60
  A 1.47 0.63 57.7 0 1 142.32 83.14
  Q 144.00 85.04 146.75 85.29
  Q 150.78 85.66 154.75 86.46
  Q 157.69 87.64 156.43 90.25
  A 0.81 0.80 14.2 0 1 155.68 90.69
  Q 154.08 90.63 153.05 89.40
  A 0.55 0.55 -36.1 0 0 152.33 89.29
  L 151.25 89.96
  Q 147.04 92.06 141.31 96.06
  Q 129.37 104.40 114.25 103.71
  Q 113.73 100.71 116.29 99.45
  A 1.31 1.00 36.8 0 1 117.22 99.44
  Q 119.92 100.44 121.41 98.05
  A 0.56 0.55 27.6 0 1 122.10 97.84
  Q 123.98 98.68 124.96 97.25
  L 136.00 85.96
  Q 137.98 84.46 137.75 82.04
  Z"
/>
<path fill="#f6d848" d="
  M 136.00 85.96
  L 124.96 97.25
  L 124.50 97.54
  Q 124.06 97.62 123.69 97.49
  A 0.87 0.70 -85.1 0 1 123.20 96.76
  Q 123.07 94.83 124.29 93.62
  Q 126.32 91.60 126.37 91.53
  Q 128.62 88.47 131.38 85.85
  A 1.98 1.51 82.3 0 0 131.85 85.02
  Q 132.16 83.91 133.07 83.27
  A 0.75 0.60 42.9 0 1 133.88 83.33
  Q 134.56 83.82 135.44 83.84
  A 0.55 0.48 0.1 0 1 135.98 84.31
  L 136.00 85.96
  Z"
/>
<path fill="#d39709" d="
  M 154.75 84.46
  Q 158.60 86.36 157.75 91.92
  Q 157.55 93.21 157.49 94.51
  Q 157.34 97.32 155.46 99.75
  L 152.73 99.13
  A 0.92 0.87 28.0 0 0 151.90 99.36
  Q 149.88 101.35 147.34 102.46
  Q 143.68 104.06 142.55 104.73
  Q 134.25 109.67 126.00 110.75
  Q 122.62 111.19 116.99 110.10
  Q 116.74 110.05 116.16 109.63
  L 113.54 107.75
  Q 112.78 105.42 110.25 105.50
  Q 109.16 105.53 109.28 104.95
  A 0.67 0.51 9.2 0 1 109.99 104.57
  Q 122.67 106.44 133.87 101.34
  Q 135.35 100.67 142.66 95.94
  Q 147.02 93.12 151.82 91.09
  Q 153.65 90.31 151.25 89.96
  L 152.33 89.29
  A 0.55 0.55 -36.1 0 1 153.05 89.40
  Q 154.08 90.63 155.68 90.69
  A 0.81 0.80 14.2 0 0 156.43 90.25
  Q 157.69 87.64 154.75 86.46
  Q 154.43 85.46 154.75 84.46
  Z"
/>
<path fill="#8f5c05" d="
  M 151.25 89.96
  Q 153.65 90.31 151.82 91.09
  Q 147.02 93.12 142.66 95.94
  Q 135.35 100.67 133.87 101.34
  Q 122.67 106.44 109.99 104.57
  A 0.67 0.51 9.2 0 0 109.28 104.95
  Q 109.16 105.53 110.25 105.50
  Q 112.78 105.42 113.54 107.75
  Q 114.27 112.10 119.06 112.06
  Q 125.26 112.02 127.37 111.45
  Q 131.39 110.36 130.79 114.25
  Q 118.83 118.79 109.59 110.40
  Q 105.23 106.43 102.94 103.56
  Q 102.14 102.57 101.25 102.54
  Q 100.55 102.31 100.04 101.75
  L 97.00 96.79
  Q 99.21 96.53 101.21 97.75
  L 104.96 100.25
  Q 108.89 103.77 114.25 103.71
  Q 129.37 104.40 141.31 96.06
  Q 147.04 92.06 151.25 89.96
  Z"
/>
<path fill="#7c7c7c" d="
  M 178.52 105.14
  Q 179.28 105.58 179.41 106.43
  A 0.92 0.72 -25.3 0 1 179.02 107.21
  Q 177.91 108.03 177.28 109.27
  Q 176.02 111.77 173.90 110.31
  A 1.75 1.59 -24.1 0 0 173.01 110.02
  Q 171.87 109.99 171.54 109.05
  Q 171.25 108.20 171.21 108.13
  Q 167.57 100.99 167.06 99.19
  Q 166.38 96.76 168.87 98.17
  Q 170.60 99.15 172.34 100.11
  Q 172.43 100.16 174.75 101.15
  Q 176.97 102.09 177.90 104.47
  A 1.50 1.12 10.3 0 0 178.52 105.14
  Z"
/>
<path fill="#ac7506" d="
  M 155.46 99.75
  L 155.50 100.96
  Q 146.81 103.53 139.77 109.28
  Q 135.72 112.58 130.79 114.25
  Q 131.39 110.36 127.37 111.45
  Q 125.26 112.02 119.06 112.06
  Q 114.27 112.10 113.54 107.75
  L 116.16 109.63
  Q 116.74 110.05 116.99 110.10
  Q 122.62 111.19 126.00 110.75
  Q 134.25 109.67 142.55 104.73
  Q 143.68 104.06 147.34 102.46
  Q 149.88 101.35 151.90 99.36
  A 0.92 0.87 28.0 0 1 152.73 99.13
  L 155.46 99.75
  Z"
/>
<path fill="#bebdbc" d="
  M 155.50 100.96
  Q 157.39 102.60 157.69 103.81
  Q 159.04 109.40 161.71 114.50
  Q 158.96 114.14 157.50 111.25
  Q 157.00 110.27 155.50 109.96
  Q 153.58 109.40 151.75 110.25
  Q 149.76 111.18 148.75 111.50
  Q 146.11 112.34 144.40 114.35
  Q 142.28 116.83 142.27 116.85
  Q 139.82 119.06 136.72 120.32
  A 1.66 0.94 29.5 0 1 135.78 120.32
  Q 134.71 120.03 133.86 120.86
  Q 129.31 125.23 123.53 127.74
  Q 119.45 129.51 114.56 127.94
  Q 111.57 126.97 109.95 124.89
  Q 109.43 124.21 107.27 120.31
  Q 105.74 117.55 104.97 114.38
  A 1.15 1.15 82.5 0 0 103.83 113.50
  Q 101.74 113.56 100.00 114.96
  L 99.71 106.50
  L 100.29 104.50
  L 101.25 102.54
  Q 102.14 102.57 102.94 103.56
  Q 105.23 106.43 109.59 110.40
  Q 118.83 118.79 130.79 114.25
  Q 135.72 112.58 139.77 109.28
  Q 146.81 103.53 155.50 100.96
  Z"
/>
<path fill="#393939" d="
  M 100.04 101.75
  Q 100.55 102.31 101.25 102.54
  L 100.29 104.50
  L 100.04 101.75
  Z"
/>
<path fill="#202020" d="
  M 99.71 106.50
  L 100.00 114.96
  L 99.79 115.00
  Q 99.90 113.75 99.16 112.81
  Q 98.79 112.35 98.73 111.95
  Q 98.40 109.81 98.69 107.66
  Q 98.76 107.17 98.99 106.93
  Q 99.27 106.64 99.71 106.50
  Z"
/>
<path fill="#dedede" d="
  M 155.50 109.96
  Q 153.20 109.92 151.75 110.75
  Q 147.68 113.07 144.57 117.07
  Q 143.15 118.89 141.44 119.84
  Q 136.99 122.32 132.68 125.01
  Q 127.67 128.14 122.04 129.99
  Q 119.88 130.69 117.77 132.28
  A 0.97 0.96 53.8 0 1 116.40 132.06
  Q 115.44 130.70 114.23 129.71
  Q 113.77 129.34 111.46 128.23
  Q 109.12 127.11 107.94 125.06
  Q 105.62 121.04 102.70 118.74
  Q 102.35 118.46 102.15 117.97
  Q 101.33 116.05 99.04 116.50
  L 99.79 115.00
  L 100.00 114.96
  Q 101.74 113.56 103.83 113.50
  A 1.15 1.15 82.5 0 1 104.97 114.38
  Q 105.74 117.55 107.27 120.31
  Q 109.43 124.21 109.95 124.89
  Q 111.57 126.97 114.56 127.94
  Q 119.45 129.51 123.53 127.74
  Q 129.31 125.23 133.86 120.86
  Q 134.71 120.03 135.78 120.32
  A 1.66 0.94 29.5 0 0 136.72 120.32
  Q 139.82 119.06 142.27 116.85
  Q 142.28 116.83 144.40 114.35
  Q 146.11 112.34 148.75 111.50
  Q 149.76 111.18 151.75 110.25
  Q 153.58 109.40 155.50 109.96
  Z"
/>
<path fill="#fefefc" d="
  M 155.50 109.96
  Q 157.00 110.27 157.50 111.25
  Q 158.96 114.14 161.71 114.50
  Q 169.76 127.54 172.00 141.75
  Q 172.53 145.11 174.54 147.25
  Q 176.39 149.22 176.43 149.27
  Q 183.15 157.88 186.06 167.69
  Q 193.22 191.81 188.25 217.21
  Q 184.25 217.28 180.25 217.27
  Q 177.35 217.27 175.96 219.75
  Q 174.71 224.53 175.29 229.50
  L 175.24 230.44
  A 0.57 0.54 0.5 0 1 174.69 230.95
  Q 171.22 231.14 168.86 233.26
  Q 166.95 234.97 166.40 238.36
  Q 165.85 241.71 166.25 244.25
  Q 166.95 248.69 167.38 253.17
  Q 167.39 253.26 167.65 254.41
  Q 167.85 255.33 167.31 256.12
  A 0.82 0.57 -49.0 0 0 167.22 256.95
  L 167.75 257.71
  Q 161.47 263.63 152.94 268.69
  Q 141.04 275.74 127.77 276.72
  Q 124.12 276.98 116.75 276.75
  Q 100.46 276.24 93.04 262.75
  L 91.46 260.00
  Q 97.46 258.44 99.19 257.19
  Q 104.79 253.15 101.79 246.50
  Q 100.51 243.11 97.71 240.78
  Q 89.38 233.85 80.80 227.21
  Q 74.05 221.98 67.96 216.00
  Q 66.28 213.96 66.46 211.25
  L 66.21 196.75
  Q 69.30 179.83 77.50 164.71
  Q 79.42 163.06 79.71 160.50
  Q 79.66 160.15 79.96 160.00
  Q 81.34 160.66 82.56 159.31
  Q 85.50 156.09 90.72 152.17
  Q 92.25 151.02 94.70 150.01
  Q 96.83 149.13 98.83 148.00
  A 0.32 0.32 -43.3 0 0 98.85 147.46
  Q 97.24 146.42 95.31 146.42
  Q 94.78 146.42 94.36 146.20
  Q 90.56 144.14 89.25 142.50
  Q 87.46 140.27 88.75 136.89
  A 1.31 0.32 73.9 0 0 88.71 135.99
  L 88.46 134.75
  L 99.04 116.50
  Q 101.33 116.05 102.15 117.97
  Q 102.35 118.46 102.70 118.74
  Q 105.62 121.04 107.94 125.06
  Q 109.12 127.11 111.46 128.23
  Q 113.77 129.34 114.23 129.71
  Q 115.44 130.70 116.40 132.06
  A 0.97 0.96 53.8 0 0 117.77 132.28
  Q 119.88 130.69 122.04 129.99
  Q 127.67 128.14 132.68 125.01
  Q 136.99 122.32 141.44 119.84
  Q 143.15 118.89 144.57 117.07
  Q 147.68 113.07 151.75 110.75
  Q 153.20 109.92 155.50 109.96
  Z
  M 116.57 144.38
  Q 114.10 143.92 111.61 144.18
  Q 110.95 144.24 110.50 144.62
  Q 109.34 145.59 110.61 146.07
  Q 110.91 146.19 111.91 146.25
  Q 113.88 146.38 114.32 148.09
  Q 114.45 148.60 114.10 150.75
  Q 113.68 153.33 115.65 154.66
  Q 116.72 155.38 116.74 154.09
  Q 116.86 147.16 123.31 146.54
  Q 125.00 146.38 126.30 145.39
  Q 126.71 145.07 126.21 144.91
  Q 122.51 143.74 118.99 142.11
  Q 118.71 141.98 118.48 142.05
  Q 118.20 142.12 118.01 142.32
  A 1.02 0.57 64.6 0 0 117.95 143.22
  Q 118.46 144.73 116.57 144.38
  Z
  M 147.96 146.00
  L 143.07 145.38
  A 0.92 0.74 17.8 0 0 142.25 145.69
  Q 141.57 146.68 142.81 147.19
  Q 147.50 149.12 153.04 150.67
  Q 160.52 152.76 163.24 154.03
  Q 171.23 157.76 176.81 163.69
  Q 178.69 165.68 180.75 165.46
  Q 181.76 165.78 182.10 165.22
  A 1.15 0.67 56.0 0 0 182.04 164.29
  Q 179.67 159.18 176.36 154.60
  Q 176.10 154.24 175.60 154.01
  Q 174.24 153.40 173.44 151.81
  Q 172.22 149.42 170.06 147.30
  Q 167.76 145.05 167.35 144.80
  Q 165.59 143.72 163.22 144.99
  Q 160.53 146.43 157.66 145.21
  Q 156.98 144.92 156.15 145.02
  L 147.96 146.00
  Z
  M 110.13 227.64
  A 1.19 1.19 -79.4 0 0 111.75 226.53
  Q 111.74 225.03 111.29 223.26
  Q 110.83 221.48 110.92 220.06
  Q 112.16 201.42 112.07 182.75
  Q 112.05 179.24 112.75 174.25
  Q 113.02 172.29 111.30 172.28
  A 0.68 0.60 -82.8 0 0 110.70 172.81
  Q 108.91 180.71 108.25 189.75
  Q 106.97 207.26 107.46 223.45
  Q 107.51 225.16 108.00 225.95
  Q 108.70 227.08 110.13 227.64
  Z"
/>
<path fill="#202020" d="
  M 85.68 122.45
  Q 86.55 120.91 88.20 121.00
  A 0.74 0.70 83.5 0 1 88.84 121.54
  Q 89.60 124.31 86.71 124.26
  A 1.21 1.21 -74.7 0 1 85.68 122.45
  Z"
/>
<path fill="#d0cfd0" d="
  M 88.46 134.75
  L 88.71 135.99
  A 1.31 0.32 73.9 0 1 88.75 136.89
  Q 87.46 140.27 89.25 142.50
  Q 90.56 144.14 94.36 146.20
  Q 94.78 146.42 95.31 146.42
  Q 97.24 146.42 98.85 147.46
  A 0.32 0.32 -43.3 0 1 98.83 148.00
  Q 96.83 149.13 94.70 150.01
  Q 92.25 151.02 90.72 152.17
  Q 85.50 156.09 82.56 159.31
  Q 81.34 160.66 79.96 160.00
  L 83.04 154.50
  Q 85.56 155.02 87.06 152.24
  Q 87.39 151.63 87.93 151.20
  Q 92.15 147.80 89.42 145.08
  Q 88.33 144.00 88.30 142.43
  A 0.86 0.82 14.8 0 0 87.86 141.72
  Q 86.83 141.13 86.46 140.00
  Q 86.96 137.18 88.46 134.75
  Z"
/>
<path fill="#a5a5a5" d="
  M 86.46 140.00
  Q 86.83 141.13 87.86 141.72
  A 0.86 0.82 14.8 0 1 88.30 142.43
  Q 88.33 144.00 89.42 145.08
  Q 92.15 147.80 87.93 151.20
  Q 87.39 151.63 87.06 152.24
  Q 85.56 155.02 83.04 154.50
  Q 84.53 151.81 84.75 149.25
  Q 85.19 144.04 86.46 140.00
  Z"
/>
<path fill="#dedede" d="
  M 116.57 144.38
  Q 118.46 144.73 117.95 143.22
  A 1.02 0.57 64.6 0 1 118.01 142.32
  Q 118.20 142.12 118.48 142.05
  Q 118.71 141.98 118.99 142.11
  Q 122.51 143.74 126.21 144.91
  Q 126.71 145.07 126.30 145.39
  Q 125.00 146.38 123.31 146.54
  Q 116.86 147.16 116.74 154.09
  Q 116.72 155.38 115.65 154.66
  Q 113.68 153.33 114.10 150.75
  Q 114.45 148.60 114.32 148.09
  Q 113.88 146.38 111.91 146.25
  Q 110.91 146.19 110.61 146.07
  Q 109.34 145.59 110.50 144.62
  Q 110.95 144.24 111.61 144.18
  Q 114.10 143.92 116.57 144.38
  Z"
/>
<path fill="#c4c4c4" d="
  M 180.75 165.46
  Q 179.59 164.12 175.94 160.31
  Q 171.16 155.33 165.15 152.69
  Q 161.28 151.00 160.04 150.58
  Q 157.39 149.67 154.50 149.75
  Q 151.37 149.83 150.06 148.94
  Q 148.52 147.89 147.96 146.00
  L 156.15 145.02
  Q 156.98 144.92 157.66 145.21
  Q 160.53 146.43 163.22 144.99
  Q 165.59 143.72 167.35 144.80
  Q 167.76 145.05 170.06 147.30
  Q 172.22 149.42 173.44 151.81
  Q 174.24 153.40 175.60 154.01
  Q 176.10 154.24 176.36 154.60
  Q 179.67 159.18 182.04 164.29
  A 1.15 0.67 56.0 0 1 182.10 165.22
  Q 181.76 165.78 180.75 165.46
  Z"
/>
<path fill="#dedede" d="
  M 147.96 146.00
  Q 148.52 147.89 150.06 148.94
  Q 151.37 149.83 154.50 149.75
  Q 157.39 149.67 160.04 150.58
  Q 161.28 151.00 165.15 152.69
  Q 171.16 155.33 175.94 160.31
  Q 179.59 164.12 180.75 165.46
  Q 178.69 165.68 176.81 163.69
  Q 171.23 157.76 163.24 154.03
  Q 160.52 152.76 153.04 150.67
  Q 147.50 149.12 142.81 147.19
  Q 141.57 146.68 142.25 145.69
  A 0.92 0.74 17.8 0 1 143.07 145.38
  L 147.96 146.00
  Z"
/>
<path fill="#515252" d="
  M 205.54 167.50
  Q 205.53 169.88 207.25 171.46
  Q 207.88 174.15 208.56 176.82
  Q 209.28 179.67 209.09 182.26
  Q 208.09 195.72 202.96 208.25
  Q 202.17 209.14 202.75 210.21
  Q 194.33 211.08 191.25 218.79
  Q 190.83 218.82 190.71 218.50
  Q 193.46 211.09 200.95 208.83
  A 1.17 1.10 2.9 0 0 201.66 208.23
  Q 206.87 197.40 207.00 183.00
  Q 207.05 177.75 205.84 173.69
  Q 204.82 170.24 202.02 165.28
  Q 196.55 155.60 186.33 150.45
  Q 185.71 150.13 185.43 149.74
  Q 184.78 148.80 185.92 148.61
  Q 186.37 148.53 186.92 148.75
  Q 190.10 150.00 192.25 151.75
  Q 194.78 153.81 198.14 157.06
  Q 200.24 159.08 202.06 162.10
  Q 203.71 164.85 205.54 167.50
  Z"
/>
<path fill="#393939" d="
  M 71.79 158.00
  Q 71.77 156.89 70.50 157.21
  Q 71.07 156.31 71.99 155.82
  Q 72.62 155.48 73.04 155.15
  Q 74.66 153.90 74.39 156.06
  A 1.13 0.84 84.0 0 1 73.91 156.87
  L 71.79 158.00
  Z"
/>
<path fill="#515252" d="
  M 70.50 157.21
  Q 71.77 156.89 71.79 158.00
  Q 65.08 169.66 60.79 182.37
  Q 59.03 187.60 59.00 192.36
  Q 58.95 200.07 60.87 207.60
  Q 61.26 209.10 62.30 210.00
  Q 63.22 210.79 64.25 211.43
  Q 64.69 211.70 64.69 211.19
  Q 64.77 203.90 66.21 196.75
  L 66.46 211.25
  L 65.00 214.21
  Q 59.87 210.47 58.58 204.23
  Q 57.48 198.91 58.00 195.50
  Q 58.47 192.41 57.81 190.43
  Q 57.15 188.44 57.79 186.45
  Q 62.44 171.92 68.69 159.69
  Q 69.59 157.93 70.50 157.21
  Z"
/>
<path fill="#a5a5a5" d="
  M 79.71 160.50
  Q 79.42 163.06 77.50 164.71
  Q 78.07 162.33 79.71 160.50
  Z"
/>
<path fill="#393939" d="
  M 192.41 168.09
  A 0.62 0.61 -14.9 0 1 192.74 167.53
  Q 194.26 166.71 194.67 164.75
  A 1.34 0.82 88.9 0 1 195.14 163.95
  Q 196.02 163.38 196.42 164.46
  A 1.32 1.06 87.4 0 0 197.02 165.14
  Q 200.74 166.93 198.11 169.43
  Q 196.83 170.63 195.08 170.72
  Q 192.51 170.85 192.41 168.09
  Z"
/>
<path fill="#202020" d="
  M 205.54 167.50
  Q 207.28 169.08 207.25 171.46
  Q 205.53 169.88 205.54 167.50
  Z"
/>
<path fill="#dedede" d="
  M 110.13 227.64
  Q 108.70 227.08 108.00 225.95
  Q 107.51 225.16 107.46 223.45
  Q 106.97 207.26 108.25 189.75
  Q 108.91 180.71 110.70 172.81
  A 0.68 0.60 -82.8 0 1 111.30 172.28
  Q 113.02 172.29 112.75 174.25
  Q 112.05 179.24 112.07 182.75
  Q 112.16 201.42 110.92 220.06
  Q 110.83 221.48 111.29 223.26
  Q 111.74 225.03 111.75 226.53
  A 1.19 1.19 -79.4 0 1 110.13 227.64
  Z"
/>
<path fill="#393939" d="
  M 202.96 208.25
  Q 203.25 209.00 203.96 209.30
  Q 204.44 209.50 204.06 209.76
  Q 203.50 210.15 202.75 210.21
  Q 202.17 209.14 202.96 208.25
  Z"
/>
<path fill="#393939" d="
  M 220.00 212.21
  Q 217.98 213.05 220.17 214.09
  Q 221.22 214.60 221.78 215.56
  A 1.57 0.90 74.3 0 0 222.45 216.22
  Q 223.88 216.81 225.29 216.00
  Q 226.04 215.99 226.00 216.69
  A 1.70 1.69 -12.2 0 1 225.06 218.14
  Q 221.11 220.08 219.65 222.99
  A 1.47 1.18 -83.5 0 1 218.98 223.65
  Q 216.58 224.69 218.19 221.94
  Q 218.62 221.19 218.83 220.67
  Q 219.31 219.43 219.33 219.38
  Q 221.60 214.82 216.60 212.85
  Q 211.79 210.96 207.32 210.39
  Q 205.07 210.11 207.25 209.49
  Q 209.23 208.93 211.03 209.40
  Q 215.58 210.59 220.00 212.21
  Z"
/>
<path fill="#7c7c7c" d="
  M 66.46 211.25
  Q 66.28 213.96 67.96 216.00
  L 66.75 216.04
  L 65.00 214.21
  L 66.46 211.25
  Z"
/>
<path fill="#8f5c05" d="
  M 54.75 212.71
  L 48.75 212.71
  Q 51.76 211.64 54.75 212.71
  Z"
/>
<path fill="#7c7c7c" d="
  M 220.00 212.21
  Q 223.27 213.21 225.29 216.00
  Q 223.88 216.81 222.45 216.22
  A 1.57 0.90 74.3 0 1 221.78 215.56
  Q 221.22 214.60 220.17 214.09
  Q 217.98 213.05 220.00 212.21
  Z"
/>
<path fill="#c18607" d="
  M 48.75 212.71
  L 54.75 212.71
  L 55.69 212.99
  Q 56.33 213.18 56.57 213.38
  Q 67.53 222.50 74.60 234.92
  Q 81.87 247.70 90.29 259.75
  L 92.50 263.29
  L 95.29 267.75
  Q 94.04 270.18 96.04 272.00
  Q 95.86 273.00 96.16 273.87
  Q 96.66 275.34 96.69 275.58
  Q 97.31 280.83 94.90 284.99
  Q 92.84 288.55 88.94 291.93
  Q 82.49 297.50 73.00 295.77
  Q 67.33 294.73 61.73 293.37
  Q 61.17 293.23 61.66 293.55
  Q 62.67 294.22 63.95 294.25
  Q 64.28 294.26 64.51 294.37
  Q 66.20 295.15 63.86 295.02
  Q 63.52 295.00 63.16 294.89
  Q 51.04 290.83 38.25 290.50
  Q 35.04 290.42 26.99 288.38
  A 1.66 1.13 69.4 0 1 26.21 287.83
  Q 25.27 286.67 23.62 286.93
  A 1.10 0.53 -18.0 0 1 22.89 286.83
  L 22.58 286.61
  A 1.25 0.75 48.7 0 0 21.77 286.35
  Q 20.41 286.53 19.56 285.64
  A 1.42 1.01 -12.0 0 0 18.75 285.29
  L 14.47 284.88
  Q 14.10 284.84 13.56 284.99
  L 11.50 285.54
  Q 8.73 284.39 8.25 282.50
  Q 6.99 277.56 9.31 272.21
  Q 11.29 267.61 11.31 267.55
  Q 14.16 258.85 12.25 249.25
  Q 11.40 244.97 11.39 240.08
  Q 11.38 235.25 13.03 232.77
  Q 15.33 229.34 20.07 228.60
  Q 25.13 227.80 30.25 228.06
  Q 34.21 228.26 37.19 225.69
  Q 38.89 224.21 43.04 215.75
  Q 45.57 213.60 48.75 212.71
  Z
  M 45.71 216.25
  Q 42.77 219.78 42.00 222.25
  Q 40.26 227.84 35.38 229.93
  Q 33.16 230.88 29.99 230.59
  Q 27.89 230.41 24.50 230.00
  Q 23.37 229.86 22.93 229.37
  A 1.23 0.21 50.0 0 0 22.22 228.77
  Q 21.34 228.55 20.97 229.34
  A 1.74 0.72 -75.5 0 1 20.40 230.10
  L 16.12 232.92
  A 1.93 1.34 -12.7 0 0 15.47 233.63
  Q 13.66 237.44 13.87 241.69
  Q 14.18 247.85 14.69 254.01
  Q 14.86 256.10 14.81 259.87
  Q 14.76 262.82 15.09 265.76
  Q 15.25 267.13 14.92 268.21
  Q 14.55 269.41 14.05 270.56
  Q 14.03 270.62 12.58 272.67
  Q 11.75 273.85 12.04 275.49
  Q 12.46 277.89 13.52 280.05
  A 1.29 1.19 -2.2 0 0 14.23 280.66
  Q 16.50 281.43 18.67 282.41
  Q 21.11 283.51 23.16 283.84
  Q 29.79 284.91 41.00 286.00
  Q 49.93 286.87 60.11 290.39
  Q 62.52 291.23 65.02 291.65
  Q 68.58 292.25 70.00 292.75
  Q 78.57 295.75 86.66 290.90
  Q 87.41 290.45 88.03 289.66
  L 93.24 282.94
  Q 93.57 282.52 93.64 282.07
  Q 94.51 276.75 94.28 271.35
  Q 94.25 270.72 93.97 270.24
  Q 93.66 269.72 93.29 269.25
  Q 91.12 266.16 89.41 262.82
  Q 87.26 258.64 85.69 256.34
  Q 75.99 242.12 73.50 237.00
  Q 67.21 224.07 56.40 214.61
  Q 53.37 211.96 49.93 213.76
  Q 49.52 213.98 48.99 213.97
  Q 46.62 213.94 45.71 216.25
  Z"
/>
<path fill="#f5bd0c" d="
  M 93.29 269.25
  L 92.75 270.81
  Q 92.53 271.46 92.56 271.74
  Q 93.42 279.20 89.26 284.99
  Q 87.03 288.11 86.18 288.92
  Q 84.50 290.54 81.69 291.44
  Q 77.18 292.87 73.41 292.07
  Q 69.24 291.20 69.13 291.18
  Q 64.50 290.55 60.06 289.14
  Q 54.10 287.27 51.13 286.64
  Q 45.59 285.47 40.10 284.09
  Q 39.03 283.82 37.34 283.85
  Q 35.92 283.87 34.55 283.57
  Q 31.57 282.90 30.48 282.83
  Q 27.93 282.67 25.39 282.35
  Q 21.33 281.82 20.62 281.61
  Q 18.38 280.95 16.31 279.19
  Q 13.76 277.02 14.25 274.00
  Q 14.46 272.69 16.51 268.65
  Q 17.51 266.69 17.48 264.59
  Q 17.39 259.59 17.04 254.61
  Q 16.92 252.99 15.81 247.51
  Q 14.81 242.56 15.62 237.52
  Q 16.01 235.11 17.68 233.75
  Q 21.35 230.76 26.24 231.50
  Q 28.71 231.88 28.79 231.88
  Q 33.36 232.27 36.19 231.19
  Q 40.58 229.50 42.83 224.03
  Q 44.42 220.20 45.71 216.25
  Q 46.62 213.94 48.99 213.97
  Q 49.52 213.98 49.93 213.76
  Q 53.37 211.96 56.40 214.61
  Q 67.21 224.07 73.50 237.00
  Q 75.99 242.12 85.69 256.34
  Q 87.26 258.64 89.41 262.82
  Q 91.12 266.16 93.29 269.25
  Z"
/>
<path fill="#393939" d="
  M 66.75 216.04
  L 67.96 216.00
  Q 74.05 221.98 80.80 227.21
  Q 89.38 233.85 97.71 240.78
  Q 100.51 243.11 101.79 246.50
  Q 101.75 247.87 101.25 246.50
  Q 100.58 244.64 95.28 240.23
  Q 91.27 236.90 87.23 233.60
  Q 86.76 233.22 78.94 227.29
  Q 72.31 222.28 66.75 216.04
  Z"
/>
<path fill="#d39709" d="
  M 45.71 216.25
  Q 44.42 220.20 42.83 224.03
  Q 40.58 229.50 36.19 231.19
  Q 33.36 232.27 28.79 231.88
  Q 28.71 231.88 26.24 231.50
  Q 21.35 230.76 17.68 233.75
  Q 16.01 235.11 15.62 237.52
  Q 14.81 242.56 15.81 247.51
  Q 16.92 252.99 17.04 254.61
  Q 17.39 259.59 17.48 264.59
  Q 17.51 266.69 16.51 268.65
  Q 14.46 272.69 14.25 274.00
  Q 13.76 277.02 16.31 279.19
  Q 18.38 280.95 20.62 281.61
  Q 21.33 281.82 25.39 282.35
  Q 27.93 282.67 30.48 282.83
  Q 31.57 282.90 34.55 283.57
  Q 35.92 283.87 37.34 283.85
  Q 39.03 283.82 40.10 284.09
  Q 45.59 285.47 51.13 286.64
  Q 54.10 287.27 60.06 289.14
  Q 64.50 290.55 69.13 291.18
  Q 69.24 291.20 73.41 292.07
  Q 77.18 292.87 81.69 291.44
  Q 84.50 290.54 86.18 288.92
  Q 87.03 288.11 89.26 284.99
  Q 93.42 279.20 92.56 271.74
  Q 92.53 271.46 92.75 270.81
  L 93.29 269.25
  Q 93.66 269.72 93.97 270.24
  Q 94.25 270.72 94.28 271.35
  Q 94.51 276.75 93.64 282.07
  Q 93.57 282.52 93.24 282.94
  L 88.03 289.66
  Q 87.41 290.45 86.66 290.90
  Q 78.57 295.75 70.00 292.75
  Q 68.58 292.25 65.02 291.65
  Q 62.52 291.23 60.11 290.39
  Q 49.93 286.87 41.00 286.00
  Q 29.79 284.91 23.16 283.84
  Q 21.11 283.51 18.67 282.41
  Q 16.50 281.43 14.23 280.66
  A 1.29 1.19 -2.2 0 1 13.52 280.05
  Q 12.46 277.89 12.04 275.49
  Q 11.75 273.85 12.58 272.67
  Q 14.03 270.62 14.05 270.56
  Q 14.55 269.41 14.92 268.21
  Q 15.25 267.13 15.09 265.76
  Q 14.76 262.82 14.81 259.87
  Q 14.86 256.10 14.69 254.01
  Q 14.18 247.85 13.87 241.69
  Q 13.66 237.44 15.47 233.63
  A 1.93 1.34 -12.7 0 1 16.12 232.92
  L 20.40 230.10
  A 1.74 0.72 -75.5 0 0 20.97 229.34
  Q 21.34 228.55 22.22 228.77
  A 1.23 0.21 50.0 0 1 22.93 229.37
  Q 23.37 229.86 24.50 230.00
  Q 27.89 230.41 29.99 230.59
  Q 33.16 230.88 35.38 229.93
  Q 40.26 227.84 42.00 222.25
  Q 42.77 219.78 45.71 216.25
  Z"
/>
<path fill="#f3bb0c" d="
  M 188.25 217.21
  Q 189.22 218.34 190.71 218.50
  Q 190.83 218.82 191.25 218.79
  L 190.71 222.50
  Q 190.14 222.41 190.25 222.99
  A 0.40 0.39 -29.7 0 1 190.16 223.31
  Q 187.68 226.11 189.00 229.25
  Q 189.62 230.72 188.44 233.78
  A 1.21 1.10 45.2 0 0 188.48 234.70
  Q 189.10 236.02 189.25 237.75
  Q 189.62 241.87 193.25 243.40
  Q 193.48 243.49 195.11 244.37
  Q 196.08 244.89 197.25 244.81
  A 1.84 1.65 -31.0 0 1 198.19 244.99
  Q 200.74 246.29 204.31 245.56
  Q 207.63 244.89 209.47 244.18
  Q 209.58 244.14 211.23 243.69
  Q 212.33 243.39 212.96 242.37
  Q 213.24 241.91 213.61 241.67
  Q 216.28 239.92 217.69 237.69
  Q 220.12 233.84 221.98 231.73
  Q 224.54 228.84 224.71 225.00
  Q 225.90 222.61 227.43 220.43
  Q 227.97 219.66 228.71 220.25
  Q 229.61 221.26 230.76 221.96
  Q 232.20 222.83 232.74 223.62
  Q 235.66 227.82 234.93 233.24
  Q 234.55 235.99 235.60 238.25
  Q 236.05 239.21 238.33 242.31
  Q 244.44 250.60 253.56 255.38
  Q 255.76 256.53 256.53 258.08
  Q 258.56 262.14 255.94 265.94
  Q 251.79 271.94 243.91 275.32
  Q 240.29 276.88 240.24 276.90
  Q 228.08 282.65 217.75 291.29
  L 216.25 290.71
  L 217.75 288.54
  L 229.00 281.04
  Q 231.80 279.72 234.37 278.00
  Q 235.90 276.98 238.02 276.10
  Q 239.94 275.30 241.69 274.16
  Q 242.31 273.76 244.53 272.85
  Q 246.10 272.20 247.01 270.68
  A 1.88 1.51 -82.5 0 1 247.69 270.03
  Q 256.36 265.78 246.26 269.32
  Q 245.57 269.56 244.92 269.89
  Q 232.73 276.13 229.50 277.50
  Q 225.54 279.18 219.81 280.29
  Q 217.23 280.80 215.02 282.11
  Q 212.56 283.57 210.02 284.92
  Q 203.00 288.66 202.66 288.79
  Q 196.53 291.24 190.25 287.96
  Q 190.10 287.88 188.30 287.11
  Q 186.43 286.32 185.93 284.37
  Q 185.27 281.80 185.24 281.71
  Q 184.14 278.54 184.25 274.50
  Q 184.49 265.48 183.77 249.01
  Q 183.66 246.36 181.94 243.31
  Q 181.08 241.79 181.16 239.55
  A 1.45 0.84 -75.2 0 0 180.91 238.64
  L 178.88 236.33
  A 1.64 1.11 30.4 0 1 178.49 235.51
  L 177.33 221.75
  A 0.59 0.50 -1.5 0 0 176.76 221.29
  Q 175.58 221.26 175.96 219.75
  Q 177.35 217.27 180.25 217.27
  Q 184.25 217.28 188.25 217.21
  Z"
/>
<path fill="#dca109" d="
  M 175.96 219.75
  Q 175.58 221.26 176.76 221.29
  A 0.59 0.50 -1.5 0 1 177.33 221.75
  L 178.49 235.51
  A 1.64 1.11 30.4 0 0 178.88 236.33
  L 180.91 238.64
  A 1.45 0.84 -75.2 0 1 181.16 239.55
  Q 181.08 241.79 181.94 243.31
  Q 183.66 246.36 183.77 249.01
  Q 184.49 265.48 184.25 274.50
  Q 184.14 278.54 185.24 281.71
  Q 185.27 281.80 185.93 284.37
  Q 186.43 286.32 188.30 287.11
  Q 190.10 287.88 190.25 287.96
  Q 196.53 291.24 202.66 288.79
  Q 203.00 288.66 210.02 284.92
  Q 212.56 283.57 215.02 282.11
  Q 217.23 280.80 219.81 280.29
  Q 225.54 279.18 229.50 277.50
  Q 232.73 276.13 244.92 269.89
  Q 245.57 269.56 246.26 269.32
  Q 256.36 265.78 247.69 270.03
  A 1.88 1.51 -82.5 0 0 247.01 270.68
  Q 246.10 272.20 244.53 272.85
  Q 242.31 273.76 241.69 274.16
  Q 239.94 275.30 238.02 276.10
  Q 235.90 276.98 234.37 278.00
  Q 231.80 279.72 229.00 281.04
  Q 226.76 281.00 224.97 282.03
  Q 222.03 283.71 221.94 283.75
  Q 215.91 286.37 208.00 290.50
  Q 201.58 293.85 194.22 293.76
  Q 189.99 293.71 187.16 291.89
  Q 183.83 289.75 182.16 286.06
  Q 180.87 283.19 180.19 281.44
  Q 179.26 279.02 179.33 276.39
  Q 179.42 272.67 179.42 272.60
  Q 179.14 265.68 179.08 258.76
  Q 179.07 258.03 178.64 255.17
  Q 178.37 253.35 178.75 251.50
  Q 179.04 250.07 178.28 245.79
  Q 177.91 243.69 177.99 246.07
  Q 178.00 246.24 178.04 246.42
  Q 179.03 250.66 177.46 254.75
  Q 177.71 252.24 176.25 249.75
  Q 175.27 248.07 175.46 245.75
  L 175.29 229.50
  Q 174.71 224.53 175.96 219.75
  Z"
/>
<path fill="#c18607" d="
  M 190.71 222.50
  Q 189.36 231.30 195.03 235.20
  Q 199.38 238.20 206.47 237.55
  Q 218.47 236.45 224.71 225.00
  Q 224.54 228.84 221.98 231.73
  Q 220.12 233.84 217.69 237.69
  Q 216.28 239.92 213.61 241.67
  Q 213.24 241.91 212.96 242.37
  Q 212.33 243.39 211.23 243.69
  Q 209.58 244.14 209.47 244.18
  Q 207.63 244.89 204.31 245.56
  Q 200.74 246.29 198.19 244.99
  A 1.84 1.65 -31.0 0 0 197.25 244.81
  Q 196.08 244.89 195.11 244.37
  Q 193.48 243.49 193.25 243.40
  Q 189.62 241.87 189.25 237.75
  Q 189.10 236.02 188.48 234.70
  A 1.21 1.10 45.2 0 1 188.44 233.78
  Q 189.62 230.72 189.00 229.25
  Q 187.68 226.11 190.16 223.31
  A 0.40 0.39 -29.7 0 0 190.25 222.99
  Q 190.14 222.41 190.71 222.50
  Z"
/>
<path fill="#c4c4c4" d="
  M 175.29 229.50
  L 175.46 245.75
  L 174.96 250.00
  Q 172.00 254.45 167.75 257.71
  L 167.22 256.95
  A 0.82 0.57 -49.0 0 1 167.31 256.12
  Q 167.85 255.33 167.65 254.41
  Q 167.39 253.26 167.38 253.17
  Q 166.95 248.69 166.25 244.25
  Q 165.85 241.71 166.40 238.36
  Q 166.95 234.97 168.86 233.26
  Q 171.22 231.14 174.69 230.95
  A 0.57 0.54 0.5 0 0 175.24 230.44
  L 175.29 229.50
  Z"
/>
<path fill="#c18607" d="
  M 229.00 281.04
  L 217.75 288.54
  Q 215.07 289.05 213.26 291.06
  A 1.70 1.56 -74.1 0 1 212.45 291.56
  Q 209.40 292.41 205.50 294.25
  Q 198.56 297.53 190.70 296.38
  Q 189.73 296.24 188.57 295.63
  Q 187.53 295.09 186.45 294.70
  Q 184.47 293.97 183.54 293.03
  Q 181.60 291.06 180.55 288.53
  Q 179.65 286.37 178.62 283.60
  Q 177.57 280.80 177.67 277.72
  Q 177.74 275.40 177.74 275.27
  Q 177.66 265.01 177.46 254.75
  Q 179.03 250.66 178.04 246.42
  Q 178.00 246.24 177.99 246.07
  Q 177.91 243.69 178.28 245.79
  Q 179.04 250.07 178.75 251.50
  Q 178.37 253.35 178.64 255.17
  Q 179.07 258.03 179.08 258.76
  Q 179.14 265.68 179.42 272.60
  Q 179.42 272.67 179.33 276.39
  Q 179.26 279.02 180.19 281.44
  Q 180.87 283.19 182.16 286.06
  Q 183.83 289.75 187.16 291.89
  Q 189.99 293.71 194.22 293.76
  Q 201.58 293.85 208.00 290.50
  Q 215.91 286.37 221.94 283.75
  Q 222.03 283.71 224.97 282.03
  Q 226.76 281.00 229.00 281.04
  Z"
/>
<path fill="#ac7506" d="
  M 175.46 245.75
  Q 175.27 248.07 176.25 249.75
  Q 177.71 252.24 177.46 254.75
  Q 177.66 265.01 177.74 275.27
  Q 177.74 275.40 177.67 277.72
  Q 177.57 280.80 178.62 283.60
  Q 179.65 286.37 180.55 288.53
  Q 181.60 291.06 183.54 293.03
  Q 184.47 293.97 186.45 294.70
  Q 187.53 295.09 188.57 295.63
  Q 189.73 296.24 190.70 296.38
  Q 198.56 297.53 205.50 294.25
  Q 209.40 292.41 212.45 291.56
  A 1.70 1.56 -74.1 0 0 213.26 291.06
  Q 215.07 289.05 217.75 288.54
  L 216.25 290.71
  L 211.25 294.54
  Q 207.83 296.07 204.35 297.47
  Q 204.29 297.49 201.72 298.71
  Q 198.69 300.15 194.50 300.00
  Q 189.64 299.82 183.59 297.66
  Q 181.84 297.04 181.26 295.27
  Q 180.21 292.06 178.12 288.92
  Q 176.64 286.67 176.27 284.68
  Q 175.61 281.11 175.75 278.75
  Q 176.31 269.23 175.21 259.75
  L 174.71 255.75
  L 174.96 250.00
  L 175.46 245.75
  Z"
/>
<path fill="#020204" d="
  M 174.96 250.00
  L 174.71 255.75
  Q 171.72 268.94 170.56 280.69
  Q 170.00 286.45 170.71 293.25
  Q 163.14 291.80 150.00 291.25
  Q 137.22 290.72 113.00 291.75
  Q 109.38 291.90 107.08 292.67
  Q 106.18 292.96 104.53 294.60
  Q 102.96 296.15 100.54 296.50
  L 100.48 295.66
  A 1.33 0.42 80.4 0 1 100.60 294.79
  Q 105.01 288.64 102.56 280.94
  Q 101.57 277.79 100.54 276.00
  L 95.29 267.75
  L 92.50 263.29
  Q 92.87 263.12 93.04 262.75
  Q 100.46 276.24 116.75 276.75
  Q 124.12 276.98 127.77 276.72
  Q 141.04 275.74 152.94 268.69
  Q 161.47 263.63 167.75 257.71
  Q 172.00 254.45 174.96 250.00
  Z"
/>
<path fill="#5a3904" d="
  M 174.71 255.75
  L 175.21 259.75
  Q 174.31 262.32 174.79 265.00
  Q 175.00 270.94 174.19 277.94
  Q 173.61 282.95 174.92 288.04
  Q 174.97 288.20 175.76 292.02
  Q 176.50 295.52 179.06 297.69
  Q 189.80 306.75 203.00 300.29
  Q 208.23 299.00 211.25 294.54
  L 216.25 290.71
  L 217.75 291.29
  Q 214.33 294.43 210.95 297.61
  Q 206.62 301.68 203.60 303.25
  Q 192.47 309.03 179.99 303.78
  Q 172.80 300.77 170.71 293.25
  Q 170.00 286.45 170.56 280.69
  Q 171.72 268.94 174.71 255.75
  Z"
/>
<path fill="#5a3904" d="
  M 90.29 259.75
  Q 90.95 259.63 91.46 260.00
  L 93.04 262.75
  Q 92.87 263.12 92.50 263.29
  L 90.29 259.75
  Z"
/>
<path fill="#986405" d="
  M 175.21 259.75
  Q 176.31 269.23 175.75 278.75
  Q 175.61 281.11 176.27 284.68
  Q 176.64 286.67 178.12 288.92
  Q 180.21 292.06 181.26 295.27
  Q 181.84 297.04 183.59 297.66
  Q 189.64 299.82 194.50 300.00
  Q 198.69 300.15 201.72 298.71
  Q 204.29 297.49 204.35 297.47
  Q 207.83 296.07 211.25 294.54
  Q 208.23 299.00 203.00 300.29
  Q 196.98 302.54 190.81 301.59
  Q 186.62 300.94 184.81 300.31
  Q 181.78 299.25 179.69 296.55
  Q 177.48 293.69 176.06 287.94
  Q 174.97 283.48 174.74 280.20
  Q 174.67 279.24 175.41 273.86
  Q 176.01 269.43 174.79 265.00
  Q 174.31 262.32 175.21 259.75
  Z"
/>
<path fill="#8f5c05" d="
  M 174.79 265.00
  Q 176.01 269.43 175.41 273.86
  Q 174.67 279.24 174.74 280.20
  Q 174.97 283.48 176.06 287.94
  Q 177.48 293.69 179.69 296.55
  Q 181.78 299.25 184.81 300.31
  Q 186.62 300.94 190.81 301.59
  Q 196.98 302.54 203.00 300.29
  Q 189.80 306.75 179.06 297.69
  Q 176.50 295.52 175.76 292.02
  Q 174.97 288.20 174.92 288.04
  Q 173.61 282.95 174.19 277.94
  Q 175.00 270.94 174.79 265.00
  Z"
/>
<path fill="#8f5c05" d="
  M 95.29 267.75
  L 100.54 276.00
  L 100.04 278.50
  Q 100.15 277.27 99.42 276.42
  Q 99.05 275.98 99.19 276.55
  Q 100.59 282.31 98.38 287.39
  Q 97.14 290.24 94.22 292.91
  Q 91.64 295.28 88.66 297.14
  Q 83.84 300.14 78.28 300.31
  Q 76.69 300.36 73.28 299.70
  Q 70.79 299.21 68.25 299.00
  Q 65.70 298.79 59.81 296.44
  Q 58.79 296.03 56.25 296.04
  Q 48.24 293.10 39.76 292.38
  Q 38.98 292.31 36.38 291.59
  Q 34.62 291.10 32.75 291.54
  L 23.96 289.00
  Q 28.17 288.60 32.05 290.30
  A 1.83 1.66 -34.9 0 0 32.99 290.42
  Q 35.47 290.10 37.57 291.25
  A 1.41 1.31 52.3 0 0 38.48 291.40
  Q 40.64 291.02 42.76 291.39
  Q 46.02 291.97 46.17 291.98
  Q 49.37 292.32 52.56 292.77
  Q 55.16 293.14 58.76 294.39
  Q 66.82 297.20 75.44 297.59
  Q 86.69 298.11 93.51 290.60
  Q 97.23 286.52 98.04 282.08
  Q 98.97 276.93 96.04 272.00
  Q 94.04 270.18 95.29 267.75
  Z"
/>
<path fill="#a26c06" d="
  M 96.04 272.00
  Q 98.97 276.93 98.04 282.08
  Q 97.23 286.52 93.51 290.60
  Q 86.69 298.11 75.44 297.59
  Q 66.82 297.20 58.76 294.39
  Q 55.16 293.14 52.56 292.77
  Q 49.37 292.32 46.17 291.98
  Q 46.02 291.97 42.76 291.39
  Q 40.64 291.02 38.48 291.40
  A 1.41 1.31 52.3 0 1 37.57 291.25
  Q 35.47 290.10 32.99 290.42
  A 1.83 1.66 -34.9 0 1 32.05 290.30
  Q 28.17 288.60 23.96 289.00
  Q 17.57 287.81 11.50 285.54
  L 13.56 284.99
  Q 14.10 284.84 14.47 284.88
  L 18.75 285.29
  A 1.42 1.01 -12.0 0 1 19.56 285.64
  Q 20.41 286.53 21.77 286.35
  A 1.25 0.75 48.7 0 1 22.58 286.61
  L 22.89 286.83
  A 1.10 0.53 -18.0 0 0 23.62 286.93
  Q 25.27 286.67 26.21 287.83
  A 1.66 1.13 69.4 0 0 26.99 288.38
  Q 35.04 290.42 38.25 290.50
  Q 51.04 290.83 63.16 294.89
  Q 63.52 295.00 63.86 295.02
  Q 66.20 295.15 64.51 294.37
  Q 64.28 294.26 63.95 294.25
  Q 62.67 294.22 61.66 293.55
  Q 61.17 293.23 61.73 293.37
  Q 67.33 294.73 73.00 295.77
  Q 82.49 297.50 88.94 291.93
  Q 92.84 288.55 94.90 284.99
  Q 97.31 280.83 96.69 275.58
  Q 96.66 275.34 96.16 273.87
  Q 95.86 273.00 96.04 272.00
  Z"
/>
<path fill="#754a04" d="
  M 100.04 278.50
  Q 100.18 280.39 100.42 282.26
  Q 101.58 291.40 94.06 296.31
  Q 92.75 297.17 91.37 298.61
  Q 89.95 300.10 88.56 300.64
  Q 85.16 301.95 81.49 302.22
  Q 81.05 302.25 80.59 302.53
  Q 79.33 303.30 78.12 302.79
  Q 76.33 302.03 76.26 302.02
  Q 74.46 301.63 72.64 301.50
  Q 70.68 301.36 69.14 300.70
  Q 62.84 297.98 56.25 296.04
  Q 58.79 296.03 59.81 296.44
  Q 65.70 298.79 68.25 299.00
  Q 70.79 299.21 73.28 299.70
  Q 76.69 300.36 78.28 300.31
  Q 83.84 300.14 88.66 297.14
  Q 91.64 295.28 94.22 292.91
  Q 97.14 290.24 98.38 287.39
  Q 100.59 282.31 99.19 276.55
  Q 99.05 275.98 99.42 276.42
  Q 100.15 277.27 100.04 278.50
  Z"
/>
<path fill="#5a3904" d="
  M 100.54 276.00
  Q 101.57 277.79 102.56 280.94
  Q 105.01 288.64 100.60 294.79
  A 1.33 0.42 80.4 0 0 100.48 295.66
  L 100.54 296.50
  Q 99.34 297.58 98.24 298.73
  Q 90.90 306.50 80.00 305.75
  Q 76.40 305.50 68.23 301.97
  Q 60.81 298.76 53.00 296.78
  Q 44.16 294.54 44.05 294.51
  Q 38.42 292.97 32.75 291.54
  Q 34.62 291.10 36.38 291.59
  Q 38.98 292.31 39.76 292.38
  Q 48.24 293.10 56.25 296.04
  Q 62.84 297.98 69.14 300.70
  Q 70.68 301.36 72.64 301.50
  Q 74.46 301.63 76.26 302.02
  Q 76.33 302.03 78.12 302.79
  Q 79.33 303.30 80.59 302.53
  Q 81.05 302.25 81.49 302.22
  Q 85.16 301.95 88.56 300.64
  Q 89.95 300.10 91.37 298.61
  Q 92.75 297.17 94.06 296.31
  Q 101.58 291.40 100.42 282.26
  Q 100.18 280.39 100.04 278.50
  L 100.54 276.00
  Z"
/>
</svg>
