<svg id="visual" viewBox="0 0 960 540" width="960" height="540" xmlns="http://www.w3.org/2000/svg" xmlns:xlink="http://www.w3.org/1999/xlink" version="1.1"><rect x="0" y="0" width="960" height="540" fill="#002233"></rect><path d="M0 419L22.8 415.5C45.7 412 91.3 405 137 413.3C182.7 421.7 228.3 445.3 274 446C319.7 446.7 365.3 424.3 411.2 404C457 383.7 503 365.3 548.8 374.7C594.7 384 640.3 421 686 439.3C731.7 457.7 777.3 457.3 823 442.8C868.7 428.3 914.3 399.7 937.2 385.3L960 371L960 541L937.2 541C914.3 541 868.7 541 823 541C777.3 541 731.7 541 686 541C640.3 541 594.7 541 548.8 541C503 541 457 541 411.2 541C365.3 541 319.7 541 274 541C228.3 541 182.7 541 137 541C91.3 541 45.7 541 22.8 541L0 541Z" fill="#0066FF" stroke-linecap="round" stroke-linejoin="miter"></path></svg>